<?xml version="1.0" encoding="UTF-8" standalone="no" ?>
<!DOCTYPE sesx>
<sesx version="1.9">

  <session appBuild="14.4.0.38" appVersion="14.4" audioChannelType="stereo" bitDepth="32" duration="11619249" sampleRate="44100">
    <tracks>
      <audioTrack automationLaneOpenState="false" id="10001" index="1" select="true" visible="true">
        <trackParameters trackHeight="1055" trackHue="160" trackMinimized="false">
          <name>Track 1</name>
        </trackParameters>
        <trackAudioParameters audioChannelType="stereo" automationMode="1" monitoring="false" recordArmed="false" solo="false" soloSafe="false">
          <trackOutput outputID="10000" type="trackID"/>
          <trackInput inputID="1"/>
          <component componentGuid="cf898b58-4bfe-4c26-95a6-71d7aaf1586e" componentID="Audition.Fader" id="trackFader" name="volume" powered="true">
            <parameter index="0" name="volume" parameterValue="1"/>
            <parameter index="1" name="static gain" parameterValue="1"/>
          </component>
          <component componentGuid="f019c961-410d-4e99-84df-14b952e34738" componentID="Audition.Mute" id="trackMute" name="Mute" powered="true">
            <parameter index="0" parameterValue="0"/>
            <parameter index="1" name="mute" parameterValue="0"/>
          </component>
          <component componentGuid="754c2d7f-a32f-4bce-8635-56975d13b8c2" componentID="Audition.StereoPanner" id="trackPan" name="StereoPanner" powered="true">
            <parameter index="0" name="Pan" parameterValue="0"/>
          </component>
          <component componentGuid="e14cdb67-f134-456a-8d9e-44f49f49b90f" componentID="Audition.EQ" id="trackEQ" name="EQ" powered="false">
            <parameter index="0" name="Low Shelf Frequency" parameterValue="0.0009078529546968638896942138671875"/>
            <parameter index="1" name="Low Shelf Gain" parameterValue="0.5"/>
            <parameter index="2" name="High Shelf Frequency" parameterValue="0.816159784793853759765625"/>
            <parameter index="3" name="High Shelf Gain" parameterValue="0.5"/>
            <parameter index="4" name="EQ Band 1 Center Frequency" parameterValue="0.0013617794029414653778076171875"/>
            <parameter index="5" name="EQ Band 1 Q" parameterValue="0.000199989997781813144683837890625"/>
            <parameter index="6" name="EQ Band 1 Gain" parameterValue="0.5"/>
            <parameter index="7" name="EQ Band 1 Enable" parameterValue="1"/>
            <parameter index="8" name="EQ Band 2 Center Frequency" parameterValue="0.008170676417648792266845703125"/>
            <parameter index="9" name="EQ Band 2 Q" parameterValue="0.000199989997781813144683837890625"/>
            <parameter index="10" name="EQ Band 2 Gain" parameterValue="0.5"/>
            <parameter index="11" name="EQ Band 2 Enable" parameterValue="1"/>
            <parameter index="12" name="EQ Band 3 Center Frequency" parameterValue="0.0354062654078006744384765625"/>
            <parameter index="13" name="EQ Band 3 Q" parameterValue="0.000199989997781813144683837890625"/>
            <parameter index="14" name="EQ Band 3 Gain" parameterValue="0.5"/>
            <parameter index="15" name="EQ Band 3 Enable" parameterValue="1"/>
            <parameter index="16" name="EQ Band 4 Center Frequency" parameterValue="0.144348621368408203125"/>
            <parameter index="17" name="EQ Band 4 Q" parameterValue="0.000199989997781813144683837890625"/>
            <parameter index="18" name="EQ Band 4 Gain" parameterValue="0.5"/>
            <parameter index="19" name="EQ Band 4 Enable" parameterValue="1"/>
            <parameter index="20" name="EQ Band 5 Center Frequency" parameterValue="0.580118000507354736328125"/>
            <parameter index="21" name="EQ Band 5 Q" parameterValue="0.000199989997781813144683837890625"/>
            <parameter index="22" name="EQ Band 5 Gain" parameterValue="0.5"/>
            <parameter index="23" name="EQ Band 5 Enable" parameterValue="1"/>
            <parameter index="24" name="Gain" parameterValue="0.666666686534881591796875"/>
            <parameter index="25" name="ConstantQ" parameterValue="1"/>
            <parameter index="26" name="Low Shelf Filter Order" parameterValue="0"/>
            <parameter index="27" name="High Shelf Filter Order" parameterValue="0"/>
            <parameter index="28" name="Ultra-Quiet Mode" parameterValue="0"/>
            <parameter index="29" name="Low Shelf Enable" parameterValue="1"/>
            <parameter index="30" name="High Shelf Enable" parameterValue="1"/>
            <parameter index="31" name="Original Sample Rate" parameterValue="0.22968749701976776123046875"/>
            <parameter index="32" name="EQ Band 1 Bandwidth" parameterValue="0.002499990165233612060546875"/>
            <parameter index="33" name="EQ Band 2 Bandwidth" parameterValue="0.0099999904632568359375"/>
            <parameter index="34" name="EQ Band 3 Bandwidth" parameterValue="0.0399999916553497314453125"/>
            <parameter index="35" name="EQ Band 4 Bandwidth" parameterValue="0.15999998152256011962890625"/>
            <parameter index="36" name="EQ Band 5 Bandwidth" parameterValue="0.63999998569488525390625"/>
            <parameter index="37" name="High-Pass Filter Enable" parameterValue="0"/>
            <parameter index="38" name="High-Pass Cutoff Frequency" parameterValue="0"/>
            <parameter index="39" name="High-Pass Slope" parameterValue="0.4000000059604644775390625"/>
            <parameter index="40" name="Low-Pass Filter Enable" parameterValue="0"/>
            <parameter index="41" name="Low-Pass Cutoff Frequency" parameterValue="0.906945049762725830078125"/>
            <parameter index="42" name="Low-Pass Slope" parameterValue="0.4000000059604644775390625"/>
            <parameter index="43" name="Bypass" parameterValue="0"/>
            <parameter index="44" name="LowGraphRange" parameterValue="1"/>
          </component>
        </trackAudioParameters>
        <editParameter parameterIndex="0" slotIndex="4294967280"/>
        <audioClip clipAutoCrossfade="true" crossFadeHeadClipID="-1" crossFadeTailClipID="-1" endPoint="155481" fileID="0" hue="-1" id="0" lockedInTime="false" looped="false" name="bean" offline="false" select="false" sourceInPoint="51455" sourceOutPoint="155481" startPoint="51455" zOrder="0">
          <component componentGuid="bf864d35-8c09-4bf9-b25e-e5c2202ef735" componentID="Audition.Fader" id="clipGain" name="volume" powered="true">
            <parameter index="0" name="volume" parameterValue="1"/>
            <parameter index="1" name="static gain" parameterValue="1"/>
          </component>
          <component componentGuid="70d834e4-fc35-4adb-bc2c-b7b07198b635" componentID="Audition.Mute" id="clipMute" name="Mute" powered="true">
            <parameter index="0" parameterValue="0"/>
            <parameter index="1" name="mute" parameterValue="0"/>
          </component>
          <component componentGuid="766d1c1b-0c29-4551-a68e-83710b6b534b" componentID="Audition.StereoPanner" id="clipPan" name="StereoPanner" powered="true">
            <parameter index="0" name="Pan" parameterValue="0"/>
          </component>
          <fadeIn crossFadeLinkType="linkedSymmetric" endPoint="0" shape="19" startPoint="0" type="log"/>
          <fadeOut crossFadeLinkType="linkedSymmetric" endPoint="104026" shape="19" startPoint="104026" type="log"/>
          <editParameter parameterIndex="0" slotIndex="4294967280"/>
          <editParameter parameterIndex="0" slotIndex="4294967281"/>
          <channelMap>
            <channel index="0" sourceIndex="0"/>
          </channelMap>
        </audioClip>
        <audioClip clipAutoCrossfade="true" crossFadeHeadClipID="-1" crossFadeTailClipID="-1" endPoint="264648" fileID="0" hue="-1" id="1" lockedInTime="false" looped="false" name="bean" offline="false" select="false" sourceInPoint="191638" sourceOutPoint="264648" startPoint="191638" zOrder="0">
          <component componentGuid="f608c94a-1dc7-429b-9c71-524d9936e251" componentID="Audition.Fader" id="clipGain" name="volume" powered="true">
            <parameter index="0" name="volume" parameterValue="1"/>
            <parameter index="1" name="static gain" parameterValue="1"/>
          </component>
          <component componentGuid="baa9efc4-9195-4ddf-80ee-8be373416a18" componentID="Audition.Mute" id="clipMute" name="Mute" powered="true">
            <parameter index="0" parameterValue="0"/>
            <parameter index="1" name="mute" parameterValue="0"/>
          </component>
          <component componentGuid="04188679-3dfe-4208-a862-892e911d1944" componentID="Audition.StereoPanner" id="clipPan" name="StereoPanner" powered="true">
            <parameter index="0" name="Pan" parameterValue="0"/>
          </component>
          <fadeIn crossFadeLinkType="linkedSymmetric" endPoint="0" shape="19" startPoint="0" type="log"/>
          <fadeOut crossFadeLinkType="linkedSymmetric" endPoint="73010" shape="19" startPoint="73010" type="log"/>
          <editParameter parameterIndex="0" slotIndex="4294967280"/>
          <editParameter parameterIndex="0" slotIndex="4294967281"/>
          <channelMap>
            <channel index="0" sourceIndex="0"/>
          </channelMap>
        </audioClip>
        <audioClip clipAutoCrossfade="true" crossFadeHeadClipID="-1" crossFadeTailClipID="-1" endPoint="439177" fileID="0" hue="-1" id="2" lockedInTime="false" looped="false" name="bean" offline="false" select="false" sourceInPoint="290375" sourceOutPoint="439177" startPoint="290375" zOrder="0">
          <component componentGuid="094badc6-eeda-4eda-9739-1d972b513175" componentID="Audition.Fader" id="clipGain" name="volume" powered="true">
            <parameter index="0" name="volume" parameterValue="1"/>
            <parameter index="1" name="static gain" parameterValue="1"/>
          </component>
          <component componentGuid="96432a56-9456-45f8-9c80-b7f30f54614a" componentID="Audition.Mute" id="clipMute" name="Mute" powered="true">
            <parameter index="0" parameterValue="0"/>
            <parameter index="1" name="mute" parameterValue="0"/>
          </component>
          <component componentGuid="49904454-a9f1-485d-906a-61803625d655" componentID="Audition.StereoPanner" id="clipPan" name="StereoPanner" powered="true">
            <parameter index="0" name="Pan" parameterValue="0"/>
          </component>
          <fadeIn crossFadeLinkType="linkedSymmetric" endPoint="0" shape="19" startPoint="0" type="log"/>
          <fadeOut crossFadeLinkType="linkedSymmetric" endPoint="148802" shape="19" startPoint="148802" type="log"/>
          <editParameter parameterIndex="0" slotIndex="4294967280"/>
          <editParameter parameterIndex="0" slotIndex="4294967281"/>
          <channelMap>
            <channel index="0" sourceIndex="0"/>
          </channelMap>
        </audioClip>
        <audioClip clipAutoCrossfade="true" crossFadeHeadClipID="-1" crossFadeTailClipID="-1" endPoint="631785" fileID="0" hue="-1" id="3" lockedInTime="false" looped="false" name="bean" offline="false" select="false" sourceInPoint="459342" sourceOutPoint="631785" startPoint="459342" zOrder="0">
          <component componentGuid="d5ae8c67-ada0-4bd9-a5c4-72cb492991eb" componentID="Audition.Fader" id="clipGain" name="volume" powered="true">
            <parameter index="0" name="volume" parameterValue="1"/>
            <parameter index="1" name="static gain" parameterValue="1"/>
          </component>
          <component componentGuid="33ce6379-23bf-42e4-8e45-37ec6088064d" componentID="Audition.Mute" id="clipMute" name="Mute" powered="true">
            <parameter index="0" parameterValue="0"/>
            <parameter index="1" name="mute" parameterValue="0"/>
          </component>
          <component componentGuid="2baf36b4-f1d0-40c5-a086-afd7c1f7216a" componentID="Audition.StereoPanner" id="clipPan" name="StereoPanner" powered="true">
            <parameter index="0" name="Pan" parameterValue="0"/>
          </component>
          <fadeIn crossFadeLinkType="linkedSymmetric" endPoint="0" shape="19" startPoint="0" type="log"/>
          <fadeOut crossFadeLinkType="linkedSymmetric" endPoint="172443" shape="19" startPoint="172443" type="log"/>
          <editParameter parameterIndex="0" slotIndex="4294967280"/>
          <editParameter parameterIndex="0" slotIndex="4294967281"/>
          <channelMap>
            <channel index="0" sourceIndex="0"/>
          </channelMap>
        </audioClip>
        <audioClip clipAutoCrossfade="true" crossFadeHeadClipID="-1" crossFadeTailClipID="-1" endPoint="743861" fileID="0" hue="-1" id="4" lockedInTime="false" looped="false" name="bean" offline="false" select="false" sourceInPoint="659598" sourceOutPoint="743861" startPoint="659598" zOrder="0">
          <component componentGuid="15d79aca-ba74-49c2-bf91-7a526b550976" componentID="Audition.Fader" id="clipGain" name="volume" powered="true">
            <parameter index="0" name="volume" parameterValue="1"/>
            <parameter index="1" name="static gain" parameterValue="1"/>
          </component>
          <component componentGuid="bfd8220d-2159-4318-9389-8ac22335f577" componentID="Audition.Mute" id="clipMute" name="Mute" powered="true">
            <parameter index="0" parameterValue="0"/>
            <parameter index="1" name="mute" parameterValue="0"/>
          </component>
          <component componentGuid="64e44acd-419d-4efe-a975-cfa364dad95e" componentID="Audition.StereoPanner" id="clipPan" name="StereoPanner" powered="true">
            <parameter index="0" name="Pan" parameterValue="0"/>
          </component>
          <fadeIn crossFadeLinkType="linkedSymmetric" endPoint="0" shape="19" startPoint="0" type="log"/>
          <fadeOut crossFadeLinkType="linkedSymmetric" endPoint="84263" shape="19" startPoint="84263" type="log"/>
          <editParameter parameterIndex="0" slotIndex="4294967280"/>
          <editParameter parameterIndex="0" slotIndex="4294967281"/>
          <channelMap>
            <channel index="0" sourceIndex="0"/>
          </channelMap>
        </audioClip>
        <audioClip clipAutoCrossfade="true" crossFadeHeadClipID="-1" crossFadeTailClipID="-1" endPoint="838152" fileID="0" hue="-1" id="5" lockedInTime="false" looped="false" name="bean" offline="false" select="false" sourceInPoint="811841" sourceOutPoint="838152" startPoint="811841" zOrder="0">
          <component componentGuid="f686b067-aebf-412d-830d-7147b944a94c" componentID="Audition.Fader" id="clipGain" name="volume" powered="true">
            <parameter index="0" name="volume" parameterValue="1"/>
            <parameter index="1" name="static gain" parameterValue="1"/>
          </component>
          <component componentGuid="21e3e661-cb38-4fda-a361-210fb6e39fd1" componentID="Audition.Mute" id="clipMute" name="Mute" powered="true">
            <parameter index="0" parameterValue="0"/>
            <parameter index="1" name="mute" parameterValue="0"/>
          </component>
          <component componentGuid="e2ddd9b2-a6f2-4de0-80a2-5736af669552" componentID="Audition.StereoPanner" id="clipPan" name="StereoPanner" powered="true">
            <parameter index="0" name="Pan" parameterValue="0"/>
          </component>
          <fadeIn crossFadeLinkType="linkedSymmetric" endPoint="0" shape="19" startPoint="0" type="log"/>
          <fadeOut crossFadeLinkType="linkedSymmetric" endPoint="26311" shape="19" startPoint="26311" type="log"/>
          <editParameter parameterIndex="0" slotIndex="4294967280"/>
          <editParameter parameterIndex="0" slotIndex="4294967281"/>
          <channelMap>
            <channel index="0" sourceIndex="0"/>
          </channelMap>
        </audioClip>
        <audioClip clipAutoCrossfade="true" crossFadeHeadClipID="-1" crossFadeTailClipID="-1" endPoint="922983" fileID="0" hue="-1" id="6" lockedInTime="false" looped="false" name="bean" offline="false" select="false" sourceInPoint="861793" sourceOutPoint="922983" startPoint="861793" zOrder="0">
          <component componentGuid="38816ac6-cf8a-45e8-aed7-ae937d1f175e" componentID="Audition.Fader" id="clipGain" name="volume" powered="true">
            <parameter index="0" name="volume" parameterValue="1"/>
            <parameter index="1" name="static gain" parameterValue="1"/>
          </component>
          <component componentGuid="8f3bc8d2-f218-4f04-b680-f3a82a7e414b" componentID="Audition.Mute" id="clipMute" name="Mute" powered="true">
            <parameter index="0" parameterValue="0"/>
            <parameter index="1" name="mute" parameterValue="0"/>
          </component>
          <component componentGuid="9738f5a6-3a5d-473c-ab43-9fd39fabe681" componentID="Audition.StereoPanner" id="clipPan" name="StereoPanner" powered="true">
            <parameter index="0" name="Pan" parameterValue="0"/>
          </component>
          <fadeIn crossFadeLinkType="linkedSymmetric" endPoint="0" shape="19" startPoint="0" type="log"/>
          <fadeOut crossFadeLinkType="linkedSymmetric" endPoint="61190" shape="19" startPoint="61190" type="log"/>
          <editParameter parameterIndex="0" slotIndex="4294967280"/>
          <editParameter parameterIndex="0" slotIndex="4294967281"/>
          <channelMap>
            <channel index="0" sourceIndex="0"/>
          </channelMap>
        </audioClip>
        <audioClip clipAutoCrossfade="true" crossFadeHeadClipID="-1" crossFadeTailClipID="-1" endPoint="1113504" fileID="0" hue="-1" id="7" lockedInTime="false" looped="false" name="bean" offline="false" select="false" sourceInPoint="953577" sourceOutPoint="1113504" startPoint="953577" zOrder="0">
          <component componentGuid="ae62c751-add2-48cb-9ab6-8ddf4aee267f" componentID="Audition.Fader" id="clipGain" name="volume" powered="true">
            <parameter index="0" name="volume" parameterValue="1"/>
            <parameter index="1" name="static gain" parameterValue="1"/>
          </component>
          <component componentGuid="b31c1c8f-cfb8-49bb-9a9f-3618cb47eb66" componentID="Audition.Mute" id="clipMute" name="Mute" powered="true">
            <parameter index="0" parameterValue="0"/>
            <parameter index="1" name="mute" parameterValue="0"/>
          </component>
          <component componentGuid="48dd76d8-1b9d-48b1-b80f-4a8e36344cc7" componentID="Audition.StereoPanner" id="clipPan" name="StereoPanner" powered="true">
            <parameter index="0" name="Pan" parameterValue="0"/>
          </component>
          <fadeIn crossFadeLinkType="linkedSymmetric" endPoint="0" shape="19" startPoint="0" type="log"/>
          <fadeOut crossFadeLinkType="linkedSymmetric" endPoint="159927" shape="19" startPoint="159927" type="log"/>
          <editParameter parameterIndex="0" slotIndex="4294967280"/>
          <editParameter parameterIndex="0" slotIndex="4294967281"/>
          <channelMap>
            <channel index="0" sourceIndex="0"/>
          </channelMap>
        </audioClip>
        <audioClip clipAutoCrossfade="true" crossFadeHeadClipID="-1" crossFadeTailClipID="-1" endPoint="1305926" fileID="0" hue="-1" id="8" lockedInTime="false" looped="false" name="bean" offline="false" select="false" sourceInPoint="1150357" sourceOutPoint="1305926" startPoint="1150357" zOrder="0">
          <component componentGuid="433535d5-bfbe-412d-bdcc-3b51b51a8633" componentID="Audition.Fader" id="clipGain" name="volume" powered="true">
            <parameter index="0" name="volume" parameterValue="1"/>
            <parameter index="1" name="static gain" parameterValue="1"/>
          </component>
          <component componentGuid="177a5beb-449f-44fe-bc94-7742bd0d29a3" componentID="Audition.Mute" id="clipMute" name="Mute" powered="true">
            <parameter index="0" parameterValue="0"/>
            <parameter index="1" name="mute" parameterValue="0"/>
          </component>
          <component componentGuid="f842a898-4dc8-445f-bc73-a6dc73d9c1e5" componentID="Audition.StereoPanner" id="clipPan" name="StereoPanner" powered="true">
            <parameter index="0" name="Pan" parameterValue="0"/>
          </component>
          <fadeIn crossFadeLinkType="linkedSymmetric" endPoint="0" shape="19" startPoint="0" type="log"/>
          <fadeOut crossFadeLinkType="linkedSymmetric" endPoint="155569" shape="19" startPoint="155569" type="log"/>
          <editParameter parameterIndex="0" slotIndex="4294967280"/>
          <editParameter parameterIndex="0" slotIndex="4294967281"/>
          <channelMap>
            <channel index="0" sourceIndex="0"/>
          </channelMap>
        </audioClip>
        <audioClip clipAutoCrossfade="true" crossFadeHeadClipID="-1" crossFadeTailClipID="-1" endPoint="1449164" fileID="0" hue="-1" id="9" lockedInTime="false" looped="false" name="bean" offline="false" select="false" sourceInPoint="1342778" sourceOutPoint="1449164" startPoint="1342778" zOrder="0">
          <component componentGuid="9461f0b6-3c5a-4001-a534-3e03f4650182" componentID="Audition.Fader" id="clipGain" name="volume" powered="true">
            <parameter index="0" name="volume" parameterValue="1"/>
            <parameter index="1" name="static gain" parameterValue="1"/>
          </component>
          <component componentGuid="0d87470e-e646-4435-95d9-50f59575f41a" componentID="Audition.Mute" id="clipMute" name="Mute" powered="true">
            <parameter index="0" parameterValue="0"/>
            <parameter index="1" name="mute" parameterValue="0"/>
          </component>
          <component componentGuid="6807b9f0-88b4-4a27-a822-a104b61cd0d6" componentID="Audition.StereoPanner" id="clipPan" name="StereoPanner" powered="true">
            <parameter index="0" name="Pan" parameterValue="0"/>
          </component>
          <fadeIn crossFadeLinkType="linkedSymmetric" endPoint="0" shape="19" startPoint="0" type="log"/>
          <fadeOut crossFadeLinkType="linkedSymmetric" endPoint="106386" shape="19" startPoint="106386" type="log"/>
          <editParameter parameterIndex="0" slotIndex="4294967280"/>
          <editParameter parameterIndex="0" slotIndex="4294967281"/>
          <channelMap>
            <channel index="0" sourceIndex="0"/>
          </channelMap>
        </audioClip>
        <audioClip clipAutoCrossfade="true" crossFadeHeadClipID="-1" crossFadeTailClipID="-1" endPoint="1569545" fileID="0" hue="-1" id="10" lockedInTime="false" looped="false" name="bean" offline="false" select="false" sourceInPoint="1483236" sourceOutPoint="1569545" startPoint="1483236" zOrder="0">
          <component componentGuid="df34ad57-3d1b-443a-9466-76a479a30c64" componentID="Audition.Fader" id="clipGain" name="volume" powered="true">
            <parameter index="0" name="volume" parameterValue="1"/>
            <parameter index="1" name="static gain" parameterValue="1"/>
          </component>
          <component componentGuid="8a044477-8093-4757-9410-ac09c32cb037" componentID="Audition.Mute" id="clipMute" name="Mute" powered="true">
            <parameter index="0" parameterValue="0"/>
            <parameter index="1" name="mute" parameterValue="0"/>
          </component>
          <component componentGuid="a4dc765d-4af0-40a6-bc88-e4ac5325eee0" componentID="Audition.StereoPanner" id="clipPan" name="StereoPanner" powered="true">
            <parameter index="0" name="Pan" parameterValue="0"/>
          </component>
          <fadeIn crossFadeLinkType="linkedSymmetric" endPoint="0" shape="19" startPoint="0" type="log"/>
          <fadeOut crossFadeLinkType="linkedSymmetric" endPoint="86309" shape="19" startPoint="86309" type="log"/>
          <editParameter parameterIndex="0" slotIndex="4294967280"/>
          <editParameter parameterIndex="0" slotIndex="4294967281"/>
          <channelMap>
            <channel index="0" sourceIndex="0"/>
          </channelMap>
        </audioClip>
        <audioClip clipAutoCrossfade="true" crossFadeHeadClipID="-1" crossFadeTailClipID="-1" endPoint="1643946" fileID="0" hue="-1" id="11" lockedInTime="false" looped="false" name="bean" offline="false" select="false" sourceInPoint="1589015" sourceOutPoint="1643946" startPoint="1589015" zOrder="0">
          <component componentGuid="de5a3bb4-df56-4c28-98df-aaea712a92fe" componentID="Audition.Fader" id="clipGain" name="volume" powered="true">
            <parameter index="0" name="volume" parameterValue="1"/>
            <parameter index="1" name="static gain" parameterValue="1"/>
          </component>
          <component componentGuid="e1a53901-3508-444b-b666-7cfc3358b04d" componentID="Audition.Mute" id="clipMute" name="Mute" powered="true">
            <parameter index="0" parameterValue="0"/>
            <parameter index="1" name="mute" parameterValue="0"/>
          </component>
          <component componentGuid="0353484c-a0a8-4510-af1e-ac0d44081f76" componentID="Audition.StereoPanner" id="clipPan" name="StereoPanner" powered="true">
            <parameter index="0" name="Pan" parameterValue="0"/>
          </component>
          <fadeIn crossFadeLinkType="linkedSymmetric" endPoint="0" shape="19" startPoint="0" type="log"/>
          <fadeOut crossFadeLinkType="linkedSymmetric" endPoint="54931" shape="19" startPoint="54931" type="log"/>
          <editParameter parameterIndex="0" slotIndex="4294967280"/>
          <editParameter parameterIndex="0" slotIndex="4294967281"/>
          <channelMap>
            <channel index="0" sourceIndex="0"/>
          </channelMap>
        </audioClip>
        <audioClip clipAutoCrossfade="true" crossFadeHeadClipID="-1" crossFadeTailClipID="-1" endPoint="1782318" fileID="0" hue="-1" id="12" lockedInTime="false" looped="false" name="bean" offline="false" select="false" sourceInPoint="1662720" sourceOutPoint="1782318" startPoint="1662720" zOrder="0">
          <component componentGuid="df23e268-1180-4e17-98fd-f4b027437daa" componentID="Audition.Fader" id="clipGain" name="volume" powered="true">
            <parameter index="0" name="volume" parameterValue="1"/>
            <parameter index="1" name="static gain" parameterValue="1"/>
          </component>
          <component componentGuid="3ef152b7-2a0b-4c09-b4b9-6b3dec1736e5" componentID="Audition.Mute" id="clipMute" name="Mute" powered="true">
            <parameter index="0" parameterValue="0"/>
            <parameter index="1" name="mute" parameterValue="0"/>
          </component>
          <component componentGuid="61e6d331-0dd9-439e-9eca-3a9607031ae4" componentID="Audition.StereoPanner" id="clipPan" name="StereoPanner" powered="true">
            <parameter index="0" name="Pan" parameterValue="0"/>
          </component>
          <fadeIn crossFadeLinkType="linkedSymmetric" endPoint="0" shape="19" startPoint="0" type="log"/>
          <fadeOut crossFadeLinkType="linkedSymmetric" endPoint="119598" shape="19" startPoint="119598" type="log"/>
          <editParameter parameterIndex="0" slotIndex="4294967280"/>
          <editParameter parameterIndex="0" slotIndex="4294967281"/>
          <channelMap>
            <channel index="0" sourceIndex="0"/>
          </channelMap>
        </audioClip>
        <audioClip clipAutoCrossfade="true" crossFadeHeadClipID="-1" crossFadeTailClipID="-1" endPoint="2056749" fileID="0" hue="-1" id="13" lockedInTime="false" looped="false" name="bean" offline="false" select="false" sourceInPoint="1806654" sourceOutPoint="2056749" startPoint="1806654" zOrder="0">
          <component componentGuid="74d07d88-254f-4657-9571-42a3299d12f3" componentID="Audition.Fader" id="clipGain" name="volume" powered="true">
            <parameter index="0" name="volume" parameterValue="1"/>
            <parameter index="1" name="static gain" parameterValue="1"/>
          </component>
          <component componentGuid="23522dfa-8be9-4636-92fd-144faa39b13a" componentID="Audition.Mute" id="clipMute" name="Mute" powered="true">
            <parameter index="0" parameterValue="0"/>
            <parameter index="1" name="mute" parameterValue="0"/>
          </component>
          <component componentGuid="9d0bdc83-a35f-4cf5-a65f-9bac18c6eb28" componentID="Audition.StereoPanner" id="clipPan" name="StereoPanner" powered="true">
            <parameter index="0" name="Pan" parameterValue="0"/>
          </component>
          <fadeIn crossFadeLinkType="linkedSymmetric" endPoint="0" shape="19" startPoint="0" type="log"/>
          <fadeOut crossFadeLinkType="linkedSymmetric" endPoint="250095" shape="19" startPoint="250095" type="log"/>
          <editParameter parameterIndex="0" slotIndex="4294967280"/>
          <editParameter parameterIndex="0" slotIndex="4294967281"/>
          <channelMap>
            <channel index="0" sourceIndex="0"/>
          </channelMap>
        </audioClip>
        <audioClip clipAutoCrossfade="true" crossFadeHeadClipID="-1" crossFadeTailClipID="-1" endPoint="2283595" fileID="0" hue="-1" id="14" lockedInTime="false" looped="false" name="bean" offline="false" select="false" sourceInPoint="2218762" sourceOutPoint="2283595" startPoint="2218762" zOrder="0">
          <component componentGuid="465d49c7-0640-41a4-904f-3d24e3171e57" componentID="Audition.Fader" id="clipGain" name="volume" powered="true">
            <parameter index="0" name="volume" parameterValue="1"/>
            <parameter index="1" name="static gain" parameterValue="1"/>
          </component>
          <component componentGuid="28306318-b42c-4457-a8f9-e35f076c155d" componentID="Audition.Mute" id="clipMute" name="Mute" powered="true">
            <parameter index="0" parameterValue="0"/>
            <parameter index="1" name="mute" parameterValue="0"/>
          </component>
          <component componentGuid="70cd78d8-8afb-435c-bb1e-f69252ef33e2" componentID="Audition.StereoPanner" id="clipPan" name="StereoPanner" powered="true">
            <parameter index="0" name="Pan" parameterValue="0"/>
          </component>
          <fadeIn crossFadeLinkType="linkedSymmetric" endPoint="0" shape="19" startPoint="0" type="log"/>
          <fadeOut crossFadeLinkType="linkedSymmetric" endPoint="64833" shape="19" startPoint="64833" type="log"/>
          <editParameter parameterIndex="0" slotIndex="4294967280"/>
          <editParameter parameterIndex="0" slotIndex="4294967281"/>
          <channelMap>
            <channel index="0" sourceIndex="0"/>
          </channelMap>
        </audioClip>
        <audioClip clipAutoCrossfade="true" crossFadeHeadClipID="-1" crossFadeTailClipID="-1" endPoint="2711313" fileID="0" hue="-1" id="15" lockedInTime="false" looped="false" name="bean" offline="false" select="false" sourceInPoint="2380246" sourceOutPoint="2711313" startPoint="2380246" zOrder="0">
          <component componentGuid="fd8b9d17-1c6b-437f-a087-fc58ee50dace" componentID="Audition.Fader" id="clipGain" name="volume" powered="true">
            <parameter index="0" name="volume" parameterValue="1"/>
            <parameter index="1" name="static gain" parameterValue="1"/>
          </component>
          <component componentGuid="3a5a8cd0-2049-4b22-8572-aebbbd2fc8fa" componentID="Audition.Mute" id="clipMute" name="Mute" powered="true">
            <parameter index="0" parameterValue="0"/>
            <parameter index="1" name="mute" parameterValue="0"/>
          </component>
          <component componentGuid="bc9c346c-7060-4166-ab30-41fa42777b38" componentID="Audition.StereoPanner" id="clipPan" name="StereoPanner" powered="true">
            <parameter index="0" name="Pan" parameterValue="0"/>
          </component>
          <fadeIn crossFadeLinkType="linkedSymmetric" endPoint="0" shape="19" startPoint="0" type="log"/>
          <fadeOut crossFadeLinkType="linkedSymmetric" endPoint="331067" shape="19" startPoint="331067" type="log"/>
          <editParameter parameterIndex="0" slotIndex="4294967280"/>
          <editParameter parameterIndex="0" slotIndex="4294967281"/>
          <channelMap>
            <channel index="0" sourceIndex="0"/>
          </channelMap>
        </audioClip>
        <audioClip clipAutoCrossfade="true" crossFadeHeadClipID="-1" crossFadeTailClipID="-1" endPoint="2964768" fileID="0" hue="-1" id="16" lockedInTime="false" looped="false" name="bean" offline="false" select="false" sourceInPoint="2883756" sourceOutPoint="2964768" startPoint="2883756" zOrder="0">
          <component componentGuid="f4116554-06ad-4c8e-96ea-802fcfe6764f" componentID="Audition.Fader" id="clipGain" name="volume" powered="true">
            <parameter index="0" name="volume" parameterValue="1"/>
            <parameter index="1" name="static gain" parameterValue="1"/>
          </component>
          <component componentGuid="44758ccf-25b6-477d-b9ea-8655ef0237c2" componentID="Audition.Mute" id="clipMute" name="Mute" powered="true">
            <parameter index="0" parameterValue="0"/>
            <parameter index="1" name="mute" parameterValue="0"/>
          </component>
          <component componentGuid="b567b815-d4f7-4dc4-a6bb-09a791613eb0" componentID="Audition.StereoPanner" id="clipPan" name="StereoPanner" powered="true">
            <parameter index="0" name="Pan" parameterValue="0"/>
          </component>
          <fadeIn crossFadeLinkType="linkedSymmetric" endPoint="0" shape="19" startPoint="0" type="log"/>
          <fadeOut crossFadeLinkType="linkedSymmetric" endPoint="81012" shape="19" startPoint="81012" type="log"/>
          <editParameter parameterIndex="0" slotIndex="4294967280"/>
          <editParameter parameterIndex="0" slotIndex="4294967281"/>
          <channelMap>
            <channel index="0" sourceIndex="0"/>
          </channelMap>
        </audioClip>
        <audioClip clipAutoCrossfade="true" crossFadeHeadClipID="-1" crossFadeTailClipID="-1" endPoint="3087146" fileID="0" hue="-1" id="17" lockedInTime="false" looped="false" name="bean" offline="false" select="false" sourceInPoint="2994667" sourceOutPoint="3087146" startPoint="2994667" zOrder="0">
          <component componentGuid="c7599815-52f2-4daa-a07c-e8c071784135" componentID="Audition.Fader" id="clipGain" name="volume" powered="true">
            <parameter index="0" name="volume" parameterValue="1"/>
            <parameter index="1" name="static gain" parameterValue="1"/>
          </component>
          <component componentGuid="b9491a72-93c8-42c7-b941-3039c5da93e1" componentID="Audition.Mute" id="clipMute" name="Mute" powered="true">
            <parameter index="0" parameterValue="0"/>
            <parameter index="1" name="mute" parameterValue="0"/>
          </component>
          <component componentGuid="60264f32-d7c0-46e1-83b2-5b9c119c1687" componentID="Audition.StereoPanner" id="clipPan" name="StereoPanner" powered="true">
            <parameter index="0" name="Pan" parameterValue="0"/>
          </component>
          <fadeIn crossFadeLinkType="linkedSymmetric" endPoint="0" shape="19" startPoint="0" type="log"/>
          <fadeOut crossFadeLinkType="linkedSymmetric" endPoint="92479" shape="19" startPoint="92479" type="log"/>
          <editParameter parameterIndex="0" slotIndex="4294967280"/>
          <editParameter parameterIndex="0" slotIndex="4294967281"/>
          <channelMap>
            <channel index="0" sourceIndex="0"/>
          </channelMap>
        </audioClip>
        <audioClip clipAutoCrossfade="true" crossFadeHeadClipID="-1" crossFadeTailClipID="-1" endPoint="3198400" fileID="0" hue="-1" id="18" lockedInTime="false" looped="false" name="bean" offline="false" select="false" sourceInPoint="3132343" sourceOutPoint="3198400" startPoint="3132343" zOrder="0">
          <component componentGuid="d12eda6f-7e89-4408-9254-87dd0877888b" componentID="Audition.Fader" id="clipGain" name="volume" powered="true">
            <parameter index="0" name="volume" parameterValue="1"/>
            <parameter index="1" name="static gain" parameterValue="1"/>
          </component>
          <component componentGuid="a98fc084-2b3d-4516-8bbd-3d82ff226f3f" componentID="Audition.Mute" id="clipMute" name="Mute" powered="true">
            <parameter index="0" parameterValue="0"/>
            <parameter index="1" name="mute" parameterValue="0"/>
          </component>
          <component componentGuid="1f31c675-2b64-4bca-aa1b-601be40b22ab" componentID="Audition.StereoPanner" id="clipPan" name="StereoPanner" powered="true">
            <parameter index="0" name="Pan" parameterValue="0"/>
          </component>
          <fadeIn crossFadeLinkType="linkedSymmetric" endPoint="0" shape="19" startPoint="0" type="log"/>
          <fadeOut crossFadeLinkType="linkedSymmetric" endPoint="66057" shape="19" startPoint="66057" type="log"/>
          <editParameter parameterIndex="0" slotIndex="4294967280"/>
          <editParameter parameterIndex="0" slotIndex="4294967281"/>
          <channelMap>
            <channel index="0" sourceIndex="0"/>
          </channelMap>
        </audioClip>
        <audioClip clipAutoCrossfade="true" crossFadeHeadClipID="-1" crossFadeTailClipID="-1" endPoint="3311739" fileID="0" hue="-1" id="19" lockedInTime="false" looped="false" name="bean" offline="false" select="false" sourceInPoint="3232471" sourceOutPoint="3311739" startPoint="3232471" zOrder="0">
          <component componentGuid="733784f6-44e4-424b-9258-c9c35293c465" componentID="Audition.Fader" id="clipGain" name="volume" powered="true">
            <parameter index="0" name="volume" parameterValue="1"/>
            <parameter index="1" name="static gain" parameterValue="1"/>
          </component>
          <component componentGuid="aeade39a-a06c-4662-9b34-b065bae41c0a" componentID="Audition.Mute" id="clipMute" name="Mute" powered="true">
            <parameter index="0" parameterValue="0"/>
            <parameter index="1" name="mute" parameterValue="0"/>
          </component>
          <component componentGuid="9cf72df8-579f-42a9-bcfb-082c1f981ad3" componentID="Audition.StereoPanner" id="clipPan" name="StereoPanner" powered="true">
            <parameter index="0" name="Pan" parameterValue="0"/>
          </component>
          <fadeIn crossFadeLinkType="linkedSymmetric" endPoint="0" shape="19" startPoint="0" type="log"/>
          <fadeOut crossFadeLinkType="linkedSymmetric" endPoint="79268" shape="19" startPoint="79268" type="log"/>
          <editParameter parameterIndex="0" slotIndex="4294967280"/>
          <editParameter parameterIndex="0" slotIndex="4294967281"/>
          <channelMap>
            <channel index="0" sourceIndex="0"/>
          </channelMap>
        </audioClip>
        <audioClip clipAutoCrossfade="true" crossFadeHeadClipID="-1" crossFadeTailClipID="-1" endPoint="3438496" fileID="0" hue="-1" id="20" lockedInTime="false" looped="false" name="bean" offline="false" select="false" sourceInPoint="3354155" sourceOutPoint="3438496" startPoint="3354155" zOrder="0">
          <component componentGuid="2d1f2727-0ef4-4840-ad9b-7b7d8b115edd" componentID="Audition.Fader" id="clipGain" name="volume" powered="true">
            <parameter index="0" name="volume" parameterValue="1"/>
            <parameter index="1" name="static gain" parameterValue="1"/>
          </component>
          <component componentGuid="0501d4e2-4bc6-4d32-9c15-d987c633b0f3" componentID="Audition.Mute" id="clipMute" name="Mute" powered="true">
            <parameter index="0" parameterValue="0"/>
            <parameter index="1" name="mute" parameterValue="0"/>
          </component>
          <component componentGuid="61c4bdf3-8d93-4fc0-985b-b13593bf1304" componentID="Audition.StereoPanner" id="clipPan" name="StereoPanner" powered="true">
            <parameter index="0" name="Pan" parameterValue="0"/>
          </component>
          <fadeIn crossFadeLinkType="linkedSymmetric" endPoint="0" shape="19" startPoint="0" type="log"/>
          <fadeOut crossFadeLinkType="linkedSymmetric" endPoint="84341" shape="19" startPoint="84341" type="log"/>
          <editParameter parameterIndex="0" slotIndex="4294967280"/>
          <editParameter parameterIndex="0" slotIndex="4294967281"/>
          <channelMap>
            <channel index="0" sourceIndex="0"/>
          </channelMap>
        </audioClip>
        <audioClip clipAutoCrossfade="true" crossFadeHeadClipID="-1" crossFadeTailClipID="-1" endPoint="3533061" fileID="0" hue="-1" id="21" lockedInTime="false" looped="false" name="bean" offline="false" select="false" sourceInPoint="3453098" sourceOutPoint="3533061" startPoint="3453098" zOrder="0">
          <component componentGuid="4ba9b8fb-cc86-4c72-b4cf-85a8811513cd" componentID="Audition.Fader" id="clipGain" name="volume" powered="true">
            <parameter index="0" name="volume" parameterValue="1"/>
            <parameter index="1" name="static gain" parameterValue="1"/>
          </component>
          <component componentGuid="e26ce0d4-d146-4df9-8ccf-4ce3c8725f78" componentID="Audition.Mute" id="clipMute" name="Mute" powered="true">
            <parameter index="0" parameterValue="0"/>
            <parameter index="1" name="mute" parameterValue="0"/>
          </component>
          <component componentGuid="61d45c0a-8cd7-42d6-b345-016269e862cc" componentID="Audition.StereoPanner" id="clipPan" name="StereoPanner" powered="true">
            <parameter index="0" name="Pan" parameterValue="0"/>
          </component>
          <fadeIn crossFadeLinkType="linkedSymmetric" endPoint="0" shape="19" startPoint="0" type="log"/>
          <fadeOut crossFadeLinkType="linkedSymmetric" endPoint="79963" shape="19" startPoint="79963" type="log"/>
          <editParameter parameterIndex="0" slotIndex="4294967280"/>
          <editParameter parameterIndex="0" slotIndex="4294967281"/>
          <channelMap>
            <channel index="0" sourceIndex="0"/>
          </channelMap>
        </audioClip>
        <audioClip clipAutoCrossfade="true" crossFadeHeadClipID="-1" crossFadeTailClipID="-1" endPoint="3658221" fileID="0" hue="-1" id="22" lockedInTime="false" looped="false" name="bean" offline="false" select="false" sourceInPoint="3574086" sourceOutPoint="3658221" startPoint="3574086" zOrder="0">
          <component componentGuid="9306c0eb-1274-4e85-8581-41727cb7f2b5" componentID="Audition.Fader" id="clipGain" name="volume" powered="true">
            <parameter index="0" name="volume" parameterValue="1"/>
            <parameter index="1" name="static gain" parameterValue="1"/>
          </component>
          <component componentGuid="489c1d6f-ed23-4a32-8297-19c8c7cc87a9" componentID="Audition.Mute" id="clipMute" name="Mute" powered="true">
            <parameter index="0" parameterValue="0"/>
            <parameter index="1" name="mute" parameterValue="0"/>
          </component>
          <component componentGuid="7bb1c551-f1b5-4b40-8e3a-11e270404348" componentID="Audition.StereoPanner" id="clipPan" name="StereoPanner" powered="true">
            <parameter index="0" name="Pan" parameterValue="0"/>
          </component>
          <fadeIn crossFadeLinkType="linkedSymmetric" endPoint="0" shape="19" startPoint="0" type="log"/>
          <fadeOut crossFadeLinkType="linkedSymmetric" endPoint="84135" shape="19" startPoint="84135" type="log"/>
          <editParameter parameterIndex="0" slotIndex="4294967280"/>
          <editParameter parameterIndex="0" slotIndex="4294967281"/>
          <channelMap>
            <channel index="0" sourceIndex="0"/>
          </channelMap>
        </audioClip>
        <audioClip clipAutoCrossfade="true" crossFadeHeadClipID="-1" crossFadeTailClipID="-1" endPoint="3753482" fileID="0" hue="-1" id="23" lockedInTime="false" looped="false" name="bean" offline="false" select="false" sourceInPoint="3672824" sourceOutPoint="3753482" startPoint="3672824" zOrder="0">
          <component componentGuid="73117e67-3771-4f5a-87c6-ba22b304ce50" componentID="Audition.Fader" id="clipGain" name="volume" powered="true">
            <parameter index="0" name="volume" parameterValue="1"/>
            <parameter index="1" name="static gain" parameterValue="1"/>
          </component>
          <component componentGuid="680503fb-ae95-42e8-b102-f5010042b464" componentID="Audition.Mute" id="clipMute" name="Mute" powered="true">
            <parameter index="0" parameterValue="0"/>
            <parameter index="1" name="mute" parameterValue="0"/>
          </component>
          <component componentGuid="fb39f4eb-d714-4c8b-b325-fac475d6c9a1" componentID="Audition.StereoPanner" id="clipPan" name="StereoPanner" powered="true">
            <parameter index="0" name="Pan" parameterValue="0"/>
          </component>
          <fadeIn crossFadeLinkType="linkedSymmetric" endPoint="0" shape="19" startPoint="0" type="log"/>
          <fadeOut crossFadeLinkType="linkedSymmetric" endPoint="80658" shape="19" startPoint="80658" type="log"/>
          <editParameter parameterIndex="0" slotIndex="4294967280"/>
          <editParameter parameterIndex="0" slotIndex="4294967281"/>
          <channelMap>
            <channel index="0" sourceIndex="0"/>
          </channelMap>
        </audioClip>
        <audioClip clipAutoCrossfade="true" crossFadeHeadClipID="-1" crossFadeTailClipID="-1" endPoint="3909237" fileID="0" hue="-1" id="24" lockedInTime="false" looped="false" name="bean" offline="false" select="false" sourceInPoint="3798679" sourceOutPoint="3909237" startPoint="3798679" zOrder="0">
          <component componentGuid="26a96b36-4817-4b35-8f73-e1ba09a52d26" componentID="Audition.Fader" id="clipGain" name="volume" powered="true">
            <parameter index="0" name="volume" parameterValue="1"/>
            <parameter index="1" name="static gain" parameterValue="1"/>
          </component>
          <component componentGuid="25989a09-e9dc-4c0c-942e-3b555930d100" componentID="Audition.Mute" id="clipMute" name="Mute" powered="true">
            <parameter index="0" parameterValue="0"/>
            <parameter index="1" name="mute" parameterValue="0"/>
          </component>
          <component componentGuid="6c94e923-4a80-46e6-a02b-f9154c8071dc" componentID="Audition.StereoPanner" id="clipPan" name="StereoPanner" powered="true">
            <parameter index="0" name="Pan" parameterValue="0"/>
          </component>
          <fadeIn crossFadeLinkType="linkedSymmetric" endPoint="0" shape="19" startPoint="0" type="log"/>
          <fadeOut crossFadeLinkType="linkedSymmetric" endPoint="110558" shape="19" startPoint="110558" type="log"/>
          <editParameter parameterIndex="0" slotIndex="4294967280"/>
          <editParameter parameterIndex="0" slotIndex="4294967281"/>
          <channelMap>
            <channel index="0" sourceIndex="0"/>
          </channelMap>
        </audioClip>
        <audioClip clipAutoCrossfade="true" crossFadeHeadClipID="-1" crossFadeTailClipID="-1" endPoint="4856664" fileID="0" hue="-1" id="25" lockedInTime="false" looped="false" name="bean" offline="false" select="false" sourceInPoint="4653656" sourceOutPoint="4856664" startPoint="4653656" zOrder="0">
          <component componentGuid="f68e3f7b-1880-41b3-aabb-49d9bb27fc83" componentID="Audition.Fader" id="clipGain" name="volume" powered="true">
            <parameter index="0" name="volume" parameterValue="1"/>
            <parameter index="1" name="static gain" parameterValue="1"/>
          </component>
          <component componentGuid="b7438842-c5d4-4738-b0e8-b815103df162" componentID="Audition.Mute" id="clipMute" name="Mute" powered="true">
            <parameter index="0" parameterValue="0"/>
            <parameter index="1" name="mute" parameterValue="0"/>
          </component>
          <component componentGuid="41cf70fe-36ad-4d53-bb43-d672a107f093" componentID="Audition.StereoPanner" id="clipPan" name="StereoPanner" powered="true">
            <parameter index="0" name="Pan" parameterValue="0"/>
          </component>
          <fadeIn crossFadeLinkType="linkedSymmetric" endPoint="0" shape="19" startPoint="0" type="log"/>
          <fadeOut crossFadeLinkType="linkedSymmetric" endPoint="203008" shape="19" startPoint="203008" type="log"/>
          <editParameter parameterIndex="0" slotIndex="4294967280"/>
          <editParameter parameterIndex="0" slotIndex="4294967281"/>
          <channelMap>
            <channel index="0" sourceIndex="0"/>
          </channelMap>
        </audioClip>
        <audioClip clipAutoCrossfade="true" crossFadeHeadClipID="-1" crossFadeTailClipID="-1" endPoint="5132016" fileID="0" hue="-1" id="26" lockedInTime="false" looped="false" name="bean" offline="false" select="false" sourceInPoint="4919244" sourceOutPoint="5132016" startPoint="4919244" zOrder="0">
          <component componentGuid="724f9265-07c8-40b1-86d7-6ed8cb4f4a9f" componentID="Audition.Fader" id="clipGain" name="volume" powered="true">
            <parameter index="0" name="volume" parameterValue="1"/>
            <parameter index="1" name="static gain" parameterValue="1"/>
          </component>
          <component componentGuid="bd917dff-1568-44f0-8b9f-58837ce9e28d" componentID="Audition.Mute" id="clipMute" name="Mute" powered="true">
            <parameter index="0" parameterValue="0"/>
            <parameter index="1" name="mute" parameterValue="0"/>
          </component>
          <component componentGuid="8c586ccf-0727-42e2-8d5d-36d35475b124" componentID="Audition.StereoPanner" id="clipPan" name="StereoPanner" powered="true">
            <parameter index="0" name="Pan" parameterValue="0"/>
          </component>
          <fadeIn crossFadeLinkType="linkedSymmetric" endPoint="0" shape="19" startPoint="0" type="log"/>
          <fadeOut crossFadeLinkType="linkedSymmetric" endPoint="212772" shape="19" startPoint="212772" type="log"/>
          <editParameter parameterIndex="0" slotIndex="4294967280"/>
          <editParameter parameterIndex="0" slotIndex="4294967281"/>
          <channelMap>
            <channel index="0" sourceIndex="0"/>
          </channelMap>
        </audioClip>
        <audioClip clipAutoCrossfade="true" crossFadeHeadClipID="-1" crossFadeTailClipID="-1" endPoint="5386088" fileID="0" hue="-1" id="27" lockedInTime="false" looped="false" name="bean" offline="false" select="false" sourceInPoint="5199464" sourceOutPoint="5386088" startPoint="5199464" zOrder="0">
          <component componentGuid="b5c65e22-3326-49cc-9855-f61dd26170cf" componentID="Audition.Fader" id="clipGain" name="volume" powered="true">
            <parameter index="0" name="volume" parameterValue="1"/>
            <parameter index="1" name="static gain" parameterValue="1"/>
          </component>
          <component componentGuid="8b6f4ab0-3db7-4e5c-97bf-6d1aa1879ce1" componentID="Audition.Mute" id="clipMute" name="Mute" powered="true">
            <parameter index="0" parameterValue="0"/>
            <parameter index="1" name="mute" parameterValue="0"/>
          </component>
          <component componentGuid="404d2ef5-bdd5-4b49-8298-7ba2ac1ca5ae" componentID="Audition.StereoPanner" id="clipPan" name="StereoPanner" powered="true">
            <parameter index="0" name="Pan" parameterValue="0"/>
          </component>
          <fadeIn crossFadeLinkType="linkedSymmetric" endPoint="0" shape="19" startPoint="0" type="log"/>
          <fadeOut crossFadeLinkType="linkedSymmetric" endPoint="186624" shape="19" startPoint="186624" type="log"/>
          <editParameter parameterIndex="0" slotIndex="4294967280"/>
          <editParameter parameterIndex="0" slotIndex="4294967281"/>
          <channelMap>
            <channel index="0" sourceIndex="0"/>
          </channelMap>
        </audioClip>
        <audioClip clipAutoCrossfade="true" crossFadeHeadClipID="-1" crossFadeTailClipID="-1" endPoint="5627369" fileID="0" hue="-1" id="28" lockedInTime="false" looped="false" name="bean" offline="false" select="false" sourceInPoint="5440324" sourceOutPoint="5627369" startPoint="5440324" zOrder="0">
          <component componentGuid="4056b986-dce2-42b5-aebc-6bfd480907f1" componentID="Audition.Fader" id="clipGain" name="volume" powered="true">
            <parameter index="0" name="volume" parameterValue="1"/>
            <parameter index="1" name="static gain" parameterValue="1"/>
          </component>
          <component componentGuid="dd7bebc8-1dd7-413d-83a8-5f0faacfa200" componentID="Audition.Mute" id="clipMute" name="Mute" powered="true">
            <parameter index="0" parameterValue="0"/>
            <parameter index="1" name="mute" parameterValue="0"/>
          </component>
          <component componentGuid="96f25cc4-a0bd-4872-b77a-18cd3801d3b6" componentID="Audition.StereoPanner" id="clipPan" name="StereoPanner" powered="true">
            <parameter index="0" name="Pan" parameterValue="0"/>
          </component>
          <fadeIn crossFadeLinkType="linkedSymmetric" endPoint="0" shape="19" startPoint="0" type="log"/>
          <fadeOut crossFadeLinkType="linkedSymmetric" endPoint="187045" shape="19" startPoint="187045" type="log"/>
          <editParameter parameterIndex="0" slotIndex="4294967280"/>
          <editParameter parameterIndex="0" slotIndex="4294967281"/>
          <channelMap>
            <channel index="0" sourceIndex="0"/>
          </channelMap>
        </audioClip>
        <audioClip clipAutoCrossfade="true" crossFadeHeadClipID="-1" crossFadeTailClipID="-1" endPoint="5855850" fileID="0" hue="-1" id="29" lockedInTime="false" looped="false" name="bean" offline="false" select="false" sourceInPoint="5708027" sourceOutPoint="5855850" startPoint="5708027" zOrder="0">
          <component componentGuid="0d2f41df-5cb1-4fce-a7c5-5a597c319102" componentID="Audition.Fader" id="clipGain" name="volume" powered="true">
            <parameter index="0" name="volume" parameterValue="1"/>
            <parameter index="1" name="static gain" parameterValue="1"/>
          </component>
          <component componentGuid="407f23d1-0e6c-41ff-a1f2-93e99cfd9124" componentID="Audition.Mute" id="clipMute" name="Mute" powered="true">
            <parameter index="0" parameterValue="0"/>
            <parameter index="1" name="mute" parameterValue="0"/>
          </component>
          <component componentGuid="0e5f5a53-1f61-4f61-8613-3d84e21cb093" componentID="Audition.StereoPanner" id="clipPan" name="StereoPanner" powered="true">
            <parameter index="0" name="Pan" parameterValue="0"/>
          </component>
          <fadeIn crossFadeLinkType="linkedSymmetric" endPoint="0" shape="19" startPoint="0" type="log"/>
          <fadeOut crossFadeLinkType="linkedSymmetric" endPoint="147823" shape="19" startPoint="147823" type="log"/>
          <editParameter parameterIndex="0" slotIndex="4294967280"/>
          <editParameter parameterIndex="0" slotIndex="4294967281"/>
          <channelMap>
            <channel index="0" sourceIndex="0"/>
          </channelMap>
        </audioClip>
        <audioClip clipAutoCrossfade="true" crossFadeHeadClipID="-1" crossFadeTailClipID="-1" endPoint="5999784" fileID="0" hue="-1" id="30" lockedInTime="false" looped="false" name="bean" offline="false" select="false" sourceInPoint="5871842" sourceOutPoint="5999784" startPoint="5871842" zOrder="0">
          <component componentGuid="0669acc3-d39c-4b78-baaf-feef49e61c9e" componentID="Audition.Fader" id="clipGain" name="volume" powered="true">
            <parameter index="0" name="volume" parameterValue="1"/>
            <parameter index="1" name="static gain" parameterValue="1"/>
          </component>
          <component componentGuid="30ae4157-0a37-46ad-88a6-329adc626b27" componentID="Audition.Mute" id="clipMute" name="Mute" powered="true">
            <parameter index="0" parameterValue="0"/>
            <parameter index="1" name="mute" parameterValue="0"/>
          </component>
          <component componentGuid="0e47b79b-d1db-41a4-9ecd-53efeeef9473" componentID="Audition.StereoPanner" id="clipPan" name="StereoPanner" powered="true">
            <parameter index="0" name="Pan" parameterValue="0"/>
          </component>
          <fadeIn crossFadeLinkType="linkedSymmetric" endPoint="0" shape="19" startPoint="0" type="log"/>
          <fadeOut crossFadeLinkType="linkedSymmetric" endPoint="127942" shape="19" startPoint="127942" type="log"/>
          <editParameter parameterIndex="0" slotIndex="4294967280"/>
          <editParameter parameterIndex="0" slotIndex="4294967281"/>
          <channelMap>
            <channel index="0" sourceIndex="0"/>
          </channelMap>
        </audioClip>
        <audioClip clipAutoCrossfade="true" crossFadeHeadClipID="-1" crossFadeTailClipID="-1" endPoint="6772858" fileID="0" hue="-1" id="31" lockedInTime="false" looped="false" name="bean" offline="false" select="false" sourceInPoint="6444455" sourceOutPoint="6772858" startPoint="6444455" zOrder="0">
          <component componentGuid="d88ef3b4-0dbb-499e-ae8e-368505e3b604" componentID="Audition.Fader" id="clipGain" name="volume" powered="true">
            <parameter index="0" name="volume" parameterValue="1"/>
            <parameter index="1" name="static gain" parameterValue="1"/>
          </component>
          <component componentGuid="f700d992-72bc-4425-b31a-219df8fce9a7" componentID="Audition.Mute" id="clipMute" name="Mute" powered="true">
            <parameter index="0" parameterValue="0"/>
            <parameter index="1" name="mute" parameterValue="0"/>
          </component>
          <component componentGuid="c08d4703-9723-49ed-be3c-a2bbc3e5e179" componentID="Audition.StereoPanner" id="clipPan" name="StereoPanner" powered="true">
            <parameter index="0" name="Pan" parameterValue="0"/>
          </component>
          <fadeIn crossFadeLinkType="linkedSymmetric" endPoint="0" shape="19" startPoint="0" type="log"/>
          <fadeOut crossFadeLinkType="linkedSymmetric" endPoint="328403" shape="19" startPoint="328403" type="log"/>
          <editParameter parameterIndex="0" slotIndex="4294967281"/>
          <editParameter parameterIndex="0" slotIndex="4294967280"/>
          <channelMap>
            <channel index="0" sourceIndex="0"/>
          </channelMap>
        </audioClip>
        <audioClip clipAutoCrossfade="true" crossFadeHeadClipID="-1" crossFadeTailClipID="-1" endPoint="6912846" fileID="0" hue="-1" id="32" lockedInTime="false" looped="false" name="bean" offline="false" select="false" sourceInPoint="6834864" sourceOutPoint="6912846" startPoint="6834864" zOrder="0">
          <component componentGuid="cb21259e-3bcd-4b62-af91-5956e4c04e77" componentID="Audition.Fader" id="clipGain" name="volume" powered="true">
            <parameter index="0" name="volume" parameterValue="1"/>
            <parameter index="1" name="static gain" parameterValue="1"/>
          </component>
          <component componentGuid="54a1c04f-bdbe-4c0b-a82b-67dc5c35ffe8" componentID="Audition.Mute" id="clipMute" name="Mute" powered="true">
            <parameter index="0" parameterValue="0"/>
            <parameter index="1" name="mute" parameterValue="0"/>
          </component>
          <component componentGuid="544e4b3b-d0ab-441d-b3ae-4edc38bbc0a3" componentID="Audition.StereoPanner" id="clipPan" name="StereoPanner" powered="true">
            <parameter index="0" name="Pan" parameterValue="0"/>
          </component>
          <fadeIn crossFadeLinkType="linkedSymmetric" endPoint="0" shape="19" startPoint="0" type="log"/>
          <fadeOut crossFadeLinkType="linkedSymmetric" endPoint="77982" shape="19" startPoint="77982" type="log"/>
          <editParameter parameterIndex="0" slotIndex="4294967281"/>
          <editParameter parameterIndex="0" slotIndex="4294967280"/>
          <channelMap>
            <channel index="0" sourceIndex="0"/>
          </channelMap>
        </audioClip>
        <audioClip clipAutoCrossfade="true" crossFadeHeadClipID="-1" crossFadeTailClipID="-1" endPoint="7038701" fileID="0" hue="-1" id="33" lockedInTime="false" looped="false" name="bean" offline="false" select="false" sourceInPoint="6942745" sourceOutPoint="7038701" startPoint="6942745" zOrder="0">
          <component componentGuid="96a860cd-0aeb-4178-884f-11af618430ef" componentID="Audition.Fader" id="clipGain" name="volume" powered="true">
            <parameter index="0" name="volume" parameterValue="1"/>
            <parameter index="1" name="static gain" parameterValue="1"/>
          </component>
          <component componentGuid="0e674e4d-044e-4851-922b-e27a239eeb0d" componentID="Audition.Mute" id="clipMute" name="Mute" powered="true">
            <parameter index="0" parameterValue="0"/>
            <parameter index="1" name="mute" parameterValue="0"/>
          </component>
          <component componentGuid="c981b149-68f1-4986-967a-51468d7730fe" componentID="Audition.StereoPanner" id="clipPan" name="StereoPanner" powered="true">
            <parameter index="0" name="Pan" parameterValue="0"/>
          </component>
          <fadeIn crossFadeLinkType="linkedSymmetric" endPoint="0" shape="19" startPoint="0" type="log"/>
          <fadeOut crossFadeLinkType="linkedSymmetric" endPoint="95956" shape="19" startPoint="95956" type="log"/>
          <editParameter parameterIndex="0" slotIndex="4294967281"/>
          <editParameter parameterIndex="0" slotIndex="4294967280"/>
          <channelMap>
            <channel index="0" sourceIndex="0"/>
          </channelMap>
        </audioClip>
        <audioClip clipAutoCrossfade="true" crossFadeHeadClipID="-1" crossFadeTailClipID="-1" endPoint="7164997" fileID="0" hue="-1" id="34" lockedInTime="false" looped="false" name="bean" offline="false" select="false" sourceInPoint="7080862" sourceOutPoint="7164997" startPoint="7080862" zOrder="0">
          <component componentGuid="d23e5420-f8e6-4eff-8fc3-863475d5e3cb" componentID="Audition.Fader" id="clipGain" name="volume" powered="true">
            <parameter index="0" name="volume" parameterValue="1"/>
            <parameter index="1" name="static gain" parameterValue="1"/>
          </component>
          <component componentGuid="ac1ef04a-ec17-419b-80f4-747768289d9a" componentID="Audition.Mute" id="clipMute" name="Mute" powered="true">
            <parameter index="0" parameterValue="0"/>
            <parameter index="1" name="mute" parameterValue="0"/>
          </component>
          <component componentGuid="3b7444c0-e524-48f2-823a-6fd98306461a" componentID="Audition.StereoPanner" id="clipPan" name="StereoPanner" powered="true">
            <parameter index="0" name="Pan" parameterValue="0"/>
          </component>
          <fadeIn crossFadeLinkType="linkedSymmetric" endPoint="0" shape="19" startPoint="0" type="log"/>
          <fadeOut crossFadeLinkType="linkedSymmetric" endPoint="84135" shape="19" startPoint="84135" type="log"/>
          <editParameter parameterIndex="0" slotIndex="4294967281"/>
          <editParameter parameterIndex="0" slotIndex="4294967280"/>
          <channelMap>
            <channel index="0" sourceIndex="0"/>
          </channelMap>
        </audioClip>
        <audioClip clipAutoCrossfade="true" crossFadeHeadClipID="-1" crossFadeTailClipID="-1" endPoint="7315885" fileID="0" hue="-1" id="35" lockedInTime="false" looped="false" name="bean" offline="false" select="false" sourceInPoint="7206717" sourceOutPoint="7315885" startPoint="7206717" zOrder="0">
          <component componentGuid="fbec28c7-20b3-477d-9fb2-8a71d2653619" componentID="Audition.Fader" id="clipGain" name="volume" powered="true">
            <parameter index="0" name="volume" parameterValue="1"/>
            <parameter index="1" name="static gain" parameterValue="1"/>
          </component>
          <component componentGuid="3edea30e-7d3c-45ec-827a-aa0ee51c2c4f" componentID="Audition.Mute" id="clipMute" name="Mute" powered="true">
            <parameter index="0" parameterValue="0"/>
            <parameter index="1" name="mute" parameterValue="0"/>
          </component>
          <component componentGuid="70aab26d-62c5-4d8f-b753-acfdab250787" componentID="Audition.StereoPanner" id="clipPan" name="StereoPanner" powered="true">
            <parameter index="0" name="Pan" parameterValue="0"/>
          </component>
          <fadeIn crossFadeLinkType="linkedSymmetric" endPoint="0" shape="19" startPoint="0" type="log"/>
          <fadeOut crossFadeLinkType="linkedSymmetric" endPoint="109168" shape="19" startPoint="109168" type="log"/>
          <editParameter parameterIndex="0" slotIndex="4294967281"/>
          <editParameter parameterIndex="0" slotIndex="4294967280"/>
          <channelMap>
            <channel index="0" sourceIndex="0"/>
          </channelMap>
        </audioClip>
        <audioClip clipAutoCrossfade="true" crossFadeHeadClipID="-1" crossFadeTailClipID="-1" endPoint="7425052" fileID="0" hue="-1" id="36" lockedInTime="false" looped="false" name="bean" offline="false" select="false" sourceInPoint="7352042" sourceOutPoint="7425052" startPoint="7352042" zOrder="0">
          <component componentGuid="63412247-e3c7-4c3e-8ce9-289bcd634e0b" componentID="Audition.Fader" id="clipGain" name="volume" powered="true">
            <parameter index="0" name="volume" parameterValue="1"/>
            <parameter index="1" name="static gain" parameterValue="1"/>
          </component>
          <component componentGuid="131f07c2-0e09-4c09-a77c-c522d622f3b5" componentID="Audition.Mute" id="clipMute" name="Mute" powered="true">
            <parameter index="0" parameterValue="0"/>
            <parameter index="1" name="mute" parameterValue="0"/>
          </component>
          <component componentGuid="8c07d905-7138-4e7e-8a00-09fe87588b7a" componentID="Audition.StereoPanner" id="clipPan" name="StereoPanner" powered="true">
            <parameter index="0" name="Pan" parameterValue="0"/>
          </component>
          <fadeIn crossFadeLinkType="linkedSymmetric" endPoint="0" shape="19" startPoint="0" type="log"/>
          <fadeOut crossFadeLinkType="linkedSymmetric" endPoint="73010" shape="19" startPoint="73010" type="log"/>
          <editParameter parameterIndex="0" slotIndex="4294967281"/>
          <editParameter parameterIndex="0" slotIndex="4294967280"/>
          <channelMap>
            <channel index="0" sourceIndex="0"/>
          </channelMap>
        </audioClip>
        <audioClip clipAutoCrossfade="true" crossFadeHeadClipID="-1" crossFadeTailClipID="-1" endPoint="7553023" fileID="0" hue="-1" id="37" lockedInTime="false" looped="false" name="bean" offline="false" select="false" sourceInPoint="7466802" sourceOutPoint="7553023" startPoint="7466802" zOrder="0">
          <component componentGuid="8b593bc3-c072-40c6-9a31-05ad56228d24" componentID="Audition.Fader" id="clipGain" name="volume" powered="true">
            <parameter index="0" name="volume" parameterValue="1"/>
            <parameter index="1" name="static gain" parameterValue="1"/>
          </component>
          <component componentGuid="778d1bdf-b97b-4dc9-9557-6360bcac4c97" componentID="Audition.Mute" id="clipMute" name="Mute" powered="true">
            <parameter index="0" parameterValue="0"/>
            <parameter index="1" name="mute" parameterValue="0"/>
          </component>
          <component componentGuid="79e795e0-e8d0-4a44-b4f2-0f1f318c3835" componentID="Audition.StereoPanner" id="clipPan" name="StereoPanner" powered="true">
            <parameter index="0" name="Pan" parameterValue="0"/>
          </component>
          <fadeIn crossFadeLinkType="linkedSymmetric" endPoint="0" shape="19" startPoint="0" type="log"/>
          <fadeOut crossFadeLinkType="linkedSymmetric" endPoint="86221" shape="19" startPoint="86221" type="log"/>
          <editParameter parameterIndex="0" slotIndex="4294967281"/>
          <editParameter parameterIndex="0" slotIndex="4294967280"/>
          <channelMap>
            <channel index="0" sourceIndex="0"/>
          </channelMap>
        </audioClip>
        <audioClip clipAutoCrossfade="true" crossFadeHeadClipID="-1" crossFadeTailClipID="-1" endPoint="8106150" fileID="0" hue="-1" id="38" lockedInTime="false" looped="false" name="bean" offline="false" select="false" sourceInPoint="8021052" sourceOutPoint="8106150" startPoint="8021052" zOrder="0">
          <component componentGuid="38aff2b5-913e-4870-b8b1-6980ef34a95a" componentID="Audition.Fader" id="clipGain" name="volume" powered="true">
            <parameter index="0" name="volume" parameterValue="1"/>
            <parameter index="1" name="static gain" parameterValue="1"/>
          </component>
          <component componentGuid="3249297f-0018-4eda-b2be-59fe55fc9f67" componentID="Audition.Mute" id="clipMute" name="Mute" powered="true">
            <parameter index="0" parameterValue="0"/>
            <parameter index="1" name="mute" parameterValue="0"/>
          </component>
          <component componentGuid="19e66cfa-4c66-4540-8cd7-c946d9b3026c" componentID="Audition.StereoPanner" id="clipPan" name="StereoPanner" powered="true">
            <parameter index="0" name="Pan" parameterValue="0"/>
          </component>
          <fadeIn crossFadeLinkType="linkedSymmetric" endPoint="0" shape="19" startPoint="0" type="log"/>
          <fadeOut crossFadeLinkType="linkedSymmetric" endPoint="85098" shape="19" startPoint="85098" type="log"/>
          <editParameter parameterIndex="0" slotIndex="4294967281"/>
          <editParameter parameterIndex="0" slotIndex="4294967280"/>
          <channelMap>
            <channel index="0" sourceIndex="0"/>
          </channelMap>
        </audioClip>
        <audioClip clipAutoCrossfade="true" crossFadeHeadClipID="-1" crossFadeTailClipID="-1" endPoint="8221744" fileID="0" hue="-1" id="39" lockedInTime="false" looped="false" name="bean" offline="false" select="false" sourceInPoint="8117152" sourceOutPoint="8221744" startPoint="8117152" zOrder="0">
          <component componentGuid="ade52f9d-c435-4c21-96f3-c48669478386" componentID="Audition.Fader" id="clipGain" name="volume" powered="true">
            <parameter index="0" name="volume" parameterValue="1"/>
            <parameter index="1" name="static gain" parameterValue="1"/>
          </component>
          <component componentGuid="bc2642e0-234c-4ac0-9ea0-4faf6949bb5d" componentID="Audition.Mute" id="clipMute" name="Mute" powered="true">
            <parameter index="0" parameterValue="0"/>
            <parameter index="1" name="mute" parameterValue="0"/>
          </component>
          <component componentGuid="3ab02a6e-c6af-4df5-85ce-75c4b73e4a51" componentID="Audition.StereoPanner" id="clipPan" name="StereoPanner" powered="true">
            <parameter index="0" name="Pan" parameterValue="0"/>
          </component>
          <fadeIn crossFadeLinkType="linkedSymmetric" endPoint="0" shape="19" startPoint="0" type="log"/>
          <fadeOut crossFadeLinkType="linkedSymmetric" endPoint="104592" shape="19" startPoint="104592" type="log"/>
          <editParameter parameterIndex="0" slotIndex="4294967281"/>
          <editParameter parameterIndex="0" slotIndex="4294967280"/>
          <channelMap>
            <channel index="0" sourceIndex="0"/>
          </channelMap>
        </audioClip>
        <audioClip clipAutoCrossfade="true" crossFadeHeadClipID="-1" crossFadeTailClipID="-1" endPoint="8376407" fileID="0" hue="-1" id="40" lockedInTime="false" looped="false" name="bean" offline="false" select="false" sourceInPoint="8239083" sourceOutPoint="8376407" startPoint="8239083" zOrder="0">
          <component componentGuid="73e7d049-645c-478d-a05c-30e6c483e5d7" componentID="Audition.Fader" id="clipGain" name="volume" powered="true">
            <parameter index="0" name="volume" parameterValue="1"/>
            <parameter index="1" name="static gain" parameterValue="1"/>
          </component>
          <component componentGuid="ed551238-32cc-44b5-96bc-40852c5b143e" componentID="Audition.Mute" id="clipMute" name="Mute" powered="true">
            <parameter index="0" parameterValue="0"/>
            <parameter index="1" name="mute" parameterValue="0"/>
          </component>
          <component componentGuid="547d9a87-fb78-48ec-b20a-631cf8d9e205" componentID="Audition.StereoPanner" id="clipPan" name="StereoPanner" powered="true">
            <parameter index="0" name="Pan" parameterValue="0"/>
          </component>
          <fadeIn crossFadeLinkType="linkedSymmetric" endPoint="0" shape="19" startPoint="0" type="log"/>
          <fadeOut crossFadeLinkType="linkedSymmetric" endPoint="137324" shape="19" startPoint="137324" type="log"/>
          <editParameter parameterIndex="0" slotIndex="4294967281"/>
          <editParameter parameterIndex="0" slotIndex="4294967280"/>
          <channelMap>
            <channel index="0" sourceIndex="0"/>
          </channelMap>
        </audioClip>
        <audioClip clipAutoCrossfade="true" crossFadeHeadClipID="-1" crossFadeTailClipID="-1" endPoint="8891281" fileID="0" hue="-1" id="41" lockedInTime="false" looped="false" name="bean" offline="false" select="false" sourceInPoint="8496624" sourceOutPoint="8891281" startPoint="8496624" zOrder="0">
          <component componentGuid="11f4c3ee-2029-43cd-b759-c07e98314d74" componentID="Audition.Fader" id="clipGain" name="volume" powered="true">
            <parameter index="0" name="volume" parameterValue="1"/>
            <parameter index="1" name="static gain" parameterValue="1"/>
          </component>
          <component componentGuid="f517294a-d633-44e8-a160-c5433878a96c" componentID="Audition.Mute" id="clipMute" name="Mute" powered="true">
            <parameter index="0" parameterValue="0"/>
            <parameter index="1" name="mute" parameterValue="0"/>
          </component>
          <component componentGuid="a526caf3-3c6d-4b14-878a-7f36e6250469" componentID="Audition.StereoPanner" id="clipPan" name="StereoPanner" powered="true">
            <parameter index="0" name="Pan" parameterValue="0"/>
          </component>
          <fadeIn crossFadeLinkType="linkedSymmetric" endPoint="0" shape="19" startPoint="0" type="log"/>
          <fadeOut crossFadeLinkType="linkedSymmetric" endPoint="394657" shape="19" startPoint="394657" type="log"/>
          <editParameter parameterIndex="0" slotIndex="4294967281"/>
          <editParameter parameterIndex="0" slotIndex="4294967280"/>
          <channelMap>
            <channel index="0" sourceIndex="0"/>
          </channelMap>
        </audioClip>
        <audioClip clipAutoCrossfade="true" crossFadeHeadClipID="-1" crossFadeTailClipID="-1" endPoint="10057364" fileID="0" hue="-1" id="42" lockedInTime="false" looped="false" name="bean" offline="false" select="false" sourceInPoint="9585873" sourceOutPoint="10057364" startPoint="9585873" zOrder="0">
          <component componentGuid="485c64ac-5e80-4ab0-a249-cbbb95cb5488" componentID="Audition.Fader" id="clipGain" name="volume" powered="true">
            <parameter index="0" name="volume" parameterValue="1"/>
            <parameter index="1" name="static gain" parameterValue="1"/>
          </component>
          <component componentGuid="aea47a21-afc8-467e-bcc6-1a6259526ff2" componentID="Audition.Mute" id="clipMute" name="Mute" powered="true">
            <parameter index="0" parameterValue="0"/>
            <parameter index="1" name="mute" parameterValue="0"/>
          </component>
          <component componentGuid="51d76fdc-b436-4123-bb84-9a193f07ece9" componentID="Audition.StereoPanner" id="clipPan" name="StereoPanner" powered="true">
            <parameter index="0" name="Pan" parameterValue="0"/>
          </component>
          <fadeIn crossFadeLinkType="linkedSymmetric" endPoint="0" shape="19" startPoint="0" type="log"/>
          <fadeOut crossFadeLinkType="linkedSymmetric" endPoint="471491" shape="19" startPoint="471491" type="log"/>
          <editParameter parameterIndex="0" slotIndex="4294967281"/>
          <editParameter parameterIndex="0" slotIndex="4294967280"/>
          <channelMap>
            <channel index="0" sourceIndex="0"/>
          </channelMap>
        </audioClip>
        <audioClip clipAutoCrossfade="true" crossFadeHeadClipID="-1" crossFadeTailClipID="-1" endPoint="10274317" fileID="0" hue="-1" id="43" lockedInTime="false" looped="false" name="bean" offline="false" select="false" sourceInPoint="10154463" sourceOutPoint="10274317" startPoint="10154463" zOrder="0">
          <component componentGuid="ed0a2424-d12d-40e8-b17e-e084f0043918" componentID="Audition.Fader" id="clipGain" name="volume" powered="true">
            <parameter index="0" name="volume" parameterValue="1"/>
            <parameter index="1" name="static gain" parameterValue="1"/>
          </component>
          <component componentGuid="dbcb7921-dfb0-4a49-a7ff-46948149be06" componentID="Audition.Mute" id="clipMute" name="Mute" powered="true">
            <parameter index="0" parameterValue="0"/>
            <parameter index="1" name="mute" parameterValue="0"/>
          </component>
          <component componentGuid="356ba261-b879-4bdf-8090-9b0325e98de9" componentID="Audition.StereoPanner" id="clipPan" name="StereoPanner" powered="true">
            <parameter index="0" name="Pan" parameterValue="0"/>
          </component>
          <fadeIn crossFadeLinkType="linkedSymmetric" endPoint="0" shape="19" startPoint="0" type="log"/>
          <fadeOut crossFadeLinkType="linkedSymmetric" endPoint="119854" shape="19" startPoint="119854" type="log"/>
          <editParameter parameterIndex="0" slotIndex="4294967281"/>
          <editParameter parameterIndex="0" slotIndex="4294967280"/>
          <channelMap>
            <channel index="0" sourceIndex="0"/>
          </channelMap>
        </audioClip>
        <audioClip clipAutoCrossfade="true" crossFadeHeadClipID="-1" crossFadeTailClipID="-1" endPoint="10521688" fileID="0" hue="-1" id="44" lockedInTime="false" looped="false" name="bean" offline="false" select="false" sourceInPoint="10350609" sourceOutPoint="10521688" startPoint="10350609" zOrder="0">
          <component componentGuid="d21fa0a8-8acb-4754-8ba7-73e1867310eb" componentID="Audition.Fader" id="clipGain" name="volume" powered="true">
            <parameter index="0" name="volume" parameterValue="1"/>
            <parameter index="1" name="static gain" parameterValue="1"/>
          </component>
          <component componentGuid="e74a1258-345b-4acb-9ae3-2e62b10fb847" componentID="Audition.Mute" id="clipMute" name="Mute" powered="true">
            <parameter index="0" parameterValue="0"/>
            <parameter index="1" name="mute" parameterValue="0"/>
          </component>
          <component componentGuid="28320d1f-5891-4d2f-81b3-1170e17aeb0a" componentID="Audition.StereoPanner" id="clipPan" name="StereoPanner" powered="true">
            <parameter index="0" name="Pan" parameterValue="0"/>
          </component>
          <fadeIn crossFadeLinkType="linkedSymmetric" endPoint="0" shape="19" startPoint="0" type="log"/>
          <fadeOut crossFadeLinkType="linkedSymmetric" endPoint="171079" shape="19" startPoint="171079" type="log"/>
          <editParameter parameterIndex="0" slotIndex="4294967281"/>
          <editParameter parameterIndex="0" slotIndex="4294967280"/>
          <channelMap>
            <channel index="0" sourceIndex="0"/>
          </channelMap>
        </audioClip>
        <audioClip clipAutoCrossfade="true" crossFadeHeadClipID="-1" crossFadeTailClipID="-1" endPoint="10676583" fileID="0" hue="-1" id="45" lockedInTime="false" looped="false" name="bean" offline="false" select="false" sourceInPoint="10618786" sourceOutPoint="10676583" startPoint="10618786" zOrder="0">
          <component componentGuid="977c4b91-951f-4252-97be-910ddd0dd3ad" componentID="Audition.Fader" id="clipGain" name="volume" powered="true">
            <parameter index="0" name="volume" parameterValue="1"/>
            <parameter index="1" name="static gain" parameterValue="1"/>
          </component>
          <component componentGuid="c3d713e8-2929-461d-83fd-3179248b09f1" componentID="Audition.Mute" id="clipMute" name="Mute" powered="true">
            <parameter index="0" parameterValue="0"/>
            <parameter index="1" name="mute" parameterValue="0"/>
          </component>
          <component componentGuid="6a971092-fa7b-4915-b943-f15f5ed55d6a" componentID="Audition.StereoPanner" id="clipPan" name="StereoPanner" powered="true">
            <parameter index="0" name="Pan" parameterValue="0"/>
          </component>
          <fadeIn crossFadeLinkType="linkedSymmetric" endPoint="0" shape="19" startPoint="0" type="log"/>
          <fadeOut crossFadeLinkType="linkedSymmetric" endPoint="57797" shape="19" startPoint="57797" type="log"/>
          <editParameter parameterIndex="0" slotIndex="4294967281"/>
          <editParameter parameterIndex="0" slotIndex="4294967280"/>
          <channelMap>
            <channel index="0" sourceIndex="0"/>
          </channelMap>
        </audioClip>
        <audioClip clipAutoCrossfade="true" crossFadeHeadClipID="-1" crossFadeTailClipID="-1" endPoint="11061771" fileID="0" hue="-1" id="46" lockedInTime="false" looped="false" name="bean" offline="false" select="false" sourceInPoint="10703170" sourceOutPoint="11061771" startPoint="10703170" zOrder="0">
          <component componentGuid="80e43c9f-d444-4097-b971-e394fd57ddcf" componentID="Audition.Fader" id="clipGain" name="volume" powered="true">
            <parameter index="0" name="volume" parameterValue="1"/>
            <parameter index="1" name="static gain" parameterValue="1"/>
          </component>
          <component componentGuid="868c56b4-c4a3-45f2-be56-aff1b0706736" componentID="Audition.Mute" id="clipMute" name="Mute" powered="true">
            <parameter index="0" parameterValue="0"/>
            <parameter index="1" name="mute" parameterValue="0"/>
          </component>
          <component componentGuid="b2a2ce28-b02a-44f2-a517-4e0e194a7a89" componentID="Audition.StereoPanner" id="clipPan" name="StereoPanner" powered="true">
            <parameter index="0" name="Pan" parameterValue="0"/>
          </component>
          <fadeIn crossFadeLinkType="linkedSymmetric" endPoint="0" shape="19" startPoint="0" type="log"/>
          <fadeOut crossFadeLinkType="linkedSymmetric" endPoint="358601" shape="19" startPoint="358601" type="log"/>
          <editParameter parameterIndex="0" slotIndex="4294967281"/>
          <editParameter parameterIndex="0" slotIndex="4294967280"/>
          <channelMap>
            <channel index="0" sourceIndex="0"/>
          </channelMap>
        </audioClip>
      </audioTrack>
      <audioTrack automationLaneOpenState="false" id="10002" index="2" select="false" visible="true">
        <trackParameters trackHeight="1055" trackHue="267" trackMinimized="false">
          <name>Track 2</name>
        </trackParameters>
        <trackAudioParameters audioChannelType="stereo" automationMode="1" monitoring="false" recordArmed="false" solo="false" soloSafe="false">
          <trackOutput outputID="10000" type="trackID"/>
          <trackInput inputID="1"/>
          <component componentGuid="568aff3d-a8d2-4963-8d6c-dda7bb0a181c" componentID="Audition.Fader" id="trackFader" name="volume" powered="true">
            <parameter index="0" name="volume" parameterValue="1"/>
            <parameter index="1" name="static gain" parameterValue="1"/>
          </component>
          <component componentGuid="dd7d9b85-edfa-43b5-8d54-324f9225e66b" componentID="Audition.Mute" id="trackMute" name="Mute" powered="true">
            <parameter index="0" parameterValue="0"/>
            <parameter index="1" name="mute" parameterValue="0"/>
          </component>
          <component componentGuid="291a379b-577c-4cc4-b802-395f49ed15f6" componentID="Audition.StereoPanner" id="trackPan" name="StereoPanner" powered="true">
            <parameter index="0" name="Pan" parameterValue="0"/>
          </component>
          <component componentGuid="1388a4fd-744b-4ba2-9d26-5e22034c13a1" componentID="Audition.EQ" id="trackEQ" name="EQ" powered="false">
            <parameter index="0" name="Low Shelf Frequency" parameterValue="0.0009078529546968638896942138671875"/>
            <parameter index="1" name="Low Shelf Gain" parameterValue="0.5"/>
            <parameter index="2" name="High Shelf Frequency" parameterValue="0.816159784793853759765625"/>
            <parameter index="3" name="High Shelf Gain" parameterValue="0.5"/>
            <parameter index="4" name="EQ Band 1 Center Frequency" parameterValue="0.0013617794029414653778076171875"/>
            <parameter index="5" name="EQ Band 1 Q" parameterValue="0.000199989997781813144683837890625"/>
            <parameter index="6" name="EQ Band 1 Gain" parameterValue="0.5"/>
            <parameter index="7" name="EQ Band 1 Enable" parameterValue="1"/>
            <parameter index="8" name="EQ Band 2 Center Frequency" parameterValue="0.008170676417648792266845703125"/>
            <parameter index="9" name="EQ Band 2 Q" parameterValue="0.000199989997781813144683837890625"/>
            <parameter index="10" name="EQ Band 2 Gain" parameterValue="0.5"/>
            <parameter index="11" name="EQ Band 2 Enable" parameterValue="1"/>
            <parameter index="12" name="EQ Band 3 Center Frequency" parameterValue="0.0354062654078006744384765625"/>
            <parameter index="13" name="EQ Band 3 Q" parameterValue="0.000199989997781813144683837890625"/>
            <parameter index="14" name="EQ Band 3 Gain" parameterValue="0.5"/>
            <parameter index="15" name="EQ Band 3 Enable" parameterValue="1"/>
            <parameter index="16" name="EQ Band 4 Center Frequency" parameterValue="0.144348621368408203125"/>
            <parameter index="17" name="EQ Band 4 Q" parameterValue="0.000199989997781813144683837890625"/>
            <parameter index="18" name="EQ Band 4 Gain" parameterValue="0.5"/>
            <parameter index="19" name="EQ Band 4 Enable" parameterValue="1"/>
            <parameter index="20" name="EQ Band 5 Center Frequency" parameterValue="0.580118000507354736328125"/>
            <parameter index="21" name="EQ Band 5 Q" parameterValue="0.000199989997781813144683837890625"/>
            <parameter index="22" name="EQ Band 5 Gain" parameterValue="0.5"/>
            <parameter index="23" name="EQ Band 5 Enable" parameterValue="1"/>
            <parameter index="24" name="Gain" parameterValue="0.666666686534881591796875"/>
            <parameter index="25" name="ConstantQ" parameterValue="1"/>
            <parameter index="26" name="Low Shelf Filter Order" parameterValue="0"/>
            <parameter index="27" name="High Shelf Filter Order" parameterValue="0"/>
            <parameter index="28" name="Ultra-Quiet Mode" parameterValue="0"/>
            <parameter index="29" name="Low Shelf Enable" parameterValue="1"/>
            <parameter index="30" name="High Shelf Enable" parameterValue="1"/>
            <parameter index="31" name="Original Sample Rate" parameterValue="0.22968749701976776123046875"/>
            <parameter index="32" name="EQ Band 1 Bandwidth" parameterValue="0.002499990165233612060546875"/>
            <parameter index="33" name="EQ Band 2 Bandwidth" parameterValue="0.0099999904632568359375"/>
            <parameter index="34" name="EQ Band 3 Bandwidth" parameterValue="0.0399999916553497314453125"/>
            <parameter index="35" name="EQ Band 4 Bandwidth" parameterValue="0.15999998152256011962890625"/>
            <parameter index="36" name="EQ Band 5 Bandwidth" parameterValue="0.63999998569488525390625"/>
            <parameter index="37" name="High-Pass Filter Enable" parameterValue="0"/>
            <parameter index="38" name="High-Pass Cutoff Frequency" parameterValue="0"/>
            <parameter index="39" name="High-Pass Slope" parameterValue="0.4000000059604644775390625"/>
            <parameter index="40" name="Low-Pass Filter Enable" parameterValue="0"/>
            <parameter index="41" name="Low-Pass Cutoff Frequency" parameterValue="0.906945049762725830078125"/>
            <parameter index="42" name="Low-Pass Slope" parameterValue="0.4000000059604644775390625"/>
            <parameter index="43" name="Bypass" parameterValue="0"/>
            <parameter index="44" name="LowGraphRange" parameterValue="1"/>
          </component>
        </trackAudioParameters>
        <editParameter parameterIndex="0" slotIndex="4294967280"/>
      </audioTrack>
      <audioTrack automationLaneOpenState="false" id="10003" index="3" select="false" visible="true">
        <trackParameters trackHeight="1055" trackHue="51" trackMinimized="false">
          <name>Track 3</name>
        </trackParameters>
        <trackAudioParameters audioChannelType="stereo" automationMode="1" monitoring="false" recordArmed="false" solo="false" soloSafe="false">
          <trackOutput outputID="10000" type="trackID"/>
          <trackInput inputID="1"/>
          <component componentGuid="af970269-6e0c-4db0-bae7-3af65a4de930" componentID="Audition.Fader" id="trackFader" name="volume" powered="true">
            <parameter index="0" name="volume" parameterValue="1"/>
            <parameter index="1" name="static gain" parameterValue="1"/>
          </component>
          <component componentGuid="fb78da34-73d0-4b0d-b2e8-59282343cba7" componentID="Audition.Mute" id="trackMute" name="Mute" powered="true">
            <parameter index="0" parameterValue="0"/>
            <parameter index="1" name="mute" parameterValue="0"/>
          </component>
          <component componentGuid="7d1cfa8c-d595-4617-a719-d55b44101dd1" componentID="Audition.StereoPanner" id="trackPan" name="StereoPanner" powered="true">
            <parameter index="0" name="Pan" parameterValue="0"/>
          </component>
          <component componentGuid="44add7e8-4edf-4edd-88f8-b7dd1375d3be" componentID="Audition.EQ" id="trackEQ" name="EQ" powered="false">
            <parameter index="0" name="Low Shelf Frequency" parameterValue="0.0009078529546968638896942138671875"/>
            <parameter index="1" name="Low Shelf Gain" parameterValue="0.5"/>
            <parameter index="2" name="High Shelf Frequency" parameterValue="0.816159784793853759765625"/>
            <parameter index="3" name="High Shelf Gain" parameterValue="0.5"/>
            <parameter index="4" name="EQ Band 1 Center Frequency" parameterValue="0.0013617794029414653778076171875"/>
            <parameter index="5" name="EQ Band 1 Q" parameterValue="0.000199989997781813144683837890625"/>
            <parameter index="6" name="EQ Band 1 Gain" parameterValue="0.5"/>
            <parameter index="7" name="EQ Band 1 Enable" parameterValue="1"/>
            <parameter index="8" name="EQ Band 2 Center Frequency" parameterValue="0.008170676417648792266845703125"/>
            <parameter index="9" name="EQ Band 2 Q" parameterValue="0.000199989997781813144683837890625"/>
            <parameter index="10" name="EQ Band 2 Gain" parameterValue="0.5"/>
            <parameter index="11" name="EQ Band 2 Enable" parameterValue="1"/>
            <parameter index="12" name="EQ Band 3 Center Frequency" parameterValue="0.0354062654078006744384765625"/>
            <parameter index="13" name="EQ Band 3 Q" parameterValue="0.000199989997781813144683837890625"/>
            <parameter index="14" name="EQ Band 3 Gain" parameterValue="0.5"/>
            <parameter index="15" name="EQ Band 3 Enable" parameterValue="1"/>
            <parameter index="16" name="EQ Band 4 Center Frequency" parameterValue="0.144348621368408203125"/>
            <parameter index="17" name="EQ Band 4 Q" parameterValue="0.000199989997781813144683837890625"/>
            <parameter index="18" name="EQ Band 4 Gain" parameterValue="0.5"/>
            <parameter index="19" name="EQ Band 4 Enable" parameterValue="1"/>
            <parameter index="20" name="EQ Band 5 Center Frequency" parameterValue="0.580118000507354736328125"/>
            <parameter index="21" name="EQ Band 5 Q" parameterValue="0.000199989997781813144683837890625"/>
            <parameter index="22" name="EQ Band 5 Gain" parameterValue="0.5"/>
            <parameter index="23" name="EQ Band 5 Enable" parameterValue="1"/>
            <parameter index="24" name="Gain" parameterValue="0.666666686534881591796875"/>
            <parameter index="25" name="ConstantQ" parameterValue="1"/>
            <parameter index="26" name="Low Shelf Filter Order" parameterValue="0"/>
            <parameter index="27" name="High Shelf Filter Order" parameterValue="0"/>
            <parameter index="28" name="Ultra-Quiet Mode" parameterValue="0"/>
            <parameter index="29" name="Low Shelf Enable" parameterValue="1"/>
            <parameter index="30" name="High Shelf Enable" parameterValue="1"/>
            <parameter index="31" name="Original Sample Rate" parameterValue="0.22968749701976776123046875"/>
            <parameter index="32" name="EQ Band 1 Bandwidth" parameterValue="0.002499990165233612060546875"/>
            <parameter index="33" name="EQ Band 2 Bandwidth" parameterValue="0.0099999904632568359375"/>
            <parameter index="34" name="EQ Band 3 Bandwidth" parameterValue="0.0399999916553497314453125"/>
            <parameter index="35" name="EQ Band 4 Bandwidth" parameterValue="0.15999998152256011962890625"/>
            <parameter index="36" name="EQ Band 5 Bandwidth" parameterValue="0.63999998569488525390625"/>
            <parameter index="37" name="High-Pass Filter Enable" parameterValue="0"/>
            <parameter index="38" name="High-Pass Cutoff Frequency" parameterValue="0"/>
            <parameter index="39" name="High-Pass Slope" parameterValue="0.4000000059604644775390625"/>
            <parameter index="40" name="Low-Pass Filter Enable" parameterValue="0"/>
            <parameter index="41" name="Low-Pass Cutoff Frequency" parameterValue="0.906945049762725830078125"/>
            <parameter index="42" name="Low-Pass Slope" parameterValue="0.4000000059604644775390625"/>
            <parameter index="43" name="Bypass" parameterValue="0"/>
            <parameter index="44" name="LowGraphRange" parameterValue="1"/>
          </component>
        </trackAudioParameters>
        <editParameter parameterIndex="0" slotIndex="4294967280"/>
      </audioTrack>
      <audioTrack automationLaneOpenState="false" id="10004" index="4" select="false" visible="true">
        <trackParameters trackHeight="1055" trackHue="182" trackMinimized="false">
          <name>Track 4</name>
        </trackParameters>
        <trackAudioParameters audioChannelType="stereo" automationMode="1" monitoring="false" recordArmed="false" solo="false" soloSafe="false">
          <trackOutput outputID="10000" type="trackID"/>
          <trackInput inputID="1"/>
          <component componentGuid="c03944ea-4117-4a98-bd7d-2ca78a9c1a71" componentID="Audition.Fader" id="trackFader" name="volume" powered="true">
            <parameter index="0" name="volume" parameterValue="1"/>
            <parameter index="1" name="static gain" parameterValue="1"/>
          </component>
          <component componentGuid="4798dd2e-4136-4516-a9ee-f360705e34d8" componentID="Audition.Mute" id="trackMute" name="Mute" powered="true">
            <parameter index="0" parameterValue="0"/>
            <parameter index="1" name="mute" parameterValue="0"/>
          </component>
          <component componentGuid="b71e1832-f961-4084-8a9f-cf807359ea3c" componentID="Audition.StereoPanner" id="trackPan" name="StereoPanner" powered="true">
            <parameter index="0" name="Pan" parameterValue="0"/>
          </component>
          <component componentGuid="aaeb3231-82cf-4b04-ba07-1d5e5a35d1a2" componentID="Audition.EQ" id="trackEQ" name="EQ" powered="false">
            <parameter index="0" name="Low Shelf Frequency" parameterValue="0.0009078529546968638896942138671875"/>
            <parameter index="1" name="Low Shelf Gain" parameterValue="0.5"/>
            <parameter index="2" name="High Shelf Frequency" parameterValue="0.816159784793853759765625"/>
            <parameter index="3" name="High Shelf Gain" parameterValue="0.5"/>
            <parameter index="4" name="EQ Band 1 Center Frequency" parameterValue="0.0013617794029414653778076171875"/>
            <parameter index="5" name="EQ Band 1 Q" parameterValue="0.000199989997781813144683837890625"/>
            <parameter index="6" name="EQ Band 1 Gain" parameterValue="0.5"/>
            <parameter index="7" name="EQ Band 1 Enable" parameterValue="1"/>
            <parameter index="8" name="EQ Band 2 Center Frequency" parameterValue="0.008170676417648792266845703125"/>
            <parameter index="9" name="EQ Band 2 Q" parameterValue="0.000199989997781813144683837890625"/>
            <parameter index="10" name="EQ Band 2 Gain" parameterValue="0.5"/>
            <parameter index="11" name="EQ Band 2 Enable" parameterValue="1"/>
            <parameter index="12" name="EQ Band 3 Center Frequency" parameterValue="0.0354062654078006744384765625"/>
            <parameter index="13" name="EQ Band 3 Q" parameterValue="0.000199989997781813144683837890625"/>
            <parameter index="14" name="EQ Band 3 Gain" parameterValue="0.5"/>
            <parameter index="15" name="EQ Band 3 Enable" parameterValue="1"/>
            <parameter index="16" name="EQ Band 4 Center Frequency" parameterValue="0.144348621368408203125"/>
            <parameter index="17" name="EQ Band 4 Q" parameterValue="0.000199989997781813144683837890625"/>
            <parameter index="18" name="EQ Band 4 Gain" parameterValue="0.5"/>
            <parameter index="19" name="EQ Band 4 Enable" parameterValue="1"/>
            <parameter index="20" name="EQ Band 5 Center Frequency" parameterValue="0.580118000507354736328125"/>
            <parameter index="21" name="EQ Band 5 Q" parameterValue="0.000199989997781813144683837890625"/>
            <parameter index="22" name="EQ Band 5 Gain" parameterValue="0.5"/>
            <parameter index="23" name="EQ Band 5 Enable" parameterValue="1"/>
            <parameter index="24" name="Gain" parameterValue="0.666666686534881591796875"/>
            <parameter index="25" name="ConstantQ" parameterValue="1"/>
            <parameter index="26" name="Low Shelf Filter Order" parameterValue="0"/>
            <parameter index="27" name="High Shelf Filter Order" parameterValue="0"/>
            <parameter index="28" name="Ultra-Quiet Mode" parameterValue="0"/>
            <parameter index="29" name="Low Shelf Enable" parameterValue="1"/>
            <parameter index="30" name="High Shelf Enable" parameterValue="1"/>
            <parameter index="31" name="Original Sample Rate" parameterValue="0.22968749701976776123046875"/>
            <parameter index="32" name="EQ Band 1 Bandwidth" parameterValue="0.002499990165233612060546875"/>
            <parameter index="33" name="EQ Band 2 Bandwidth" parameterValue="0.0099999904632568359375"/>
            <parameter index="34" name="EQ Band 3 Bandwidth" parameterValue="0.0399999916553497314453125"/>
            <parameter index="35" name="EQ Band 4 Bandwidth" parameterValue="0.15999998152256011962890625"/>
            <parameter index="36" name="EQ Band 5 Bandwidth" parameterValue="0.63999998569488525390625"/>
            <parameter index="37" name="High-Pass Filter Enable" parameterValue="0"/>
            <parameter index="38" name="High-Pass Cutoff Frequency" parameterValue="0"/>
            <parameter index="39" name="High-Pass Slope" parameterValue="0.4000000059604644775390625"/>
            <parameter index="40" name="Low-Pass Filter Enable" parameterValue="0"/>
            <parameter index="41" name="Low-Pass Cutoff Frequency" parameterValue="0.906945049762725830078125"/>
            <parameter index="42" name="Low-Pass Slope" parameterValue="0.4000000059604644775390625"/>
            <parameter index="43" name="Bypass" parameterValue="0"/>
            <parameter index="44" name="LowGraphRange" parameterValue="1"/>
          </component>
        </trackAudioParameters>
        <editParameter parameterIndex="0" slotIndex="4294967280"/>
      </audioTrack>
      <audioTrack automationLaneOpenState="false" id="10005" index="5" select="false" visible="true">
        <trackParameters trackHeight="1055" trackHue="294" trackMinimized="false">
          <name>Track 5</name>
        </trackParameters>
        <trackAudioParameters audioChannelType="stereo" automationMode="1" monitoring="false" recordArmed="false" solo="false" soloSafe="false">
          <trackOutput outputID="10000" type="trackID"/>
          <trackInput inputID="1"/>
          <component componentGuid="311225c9-8764-439b-8063-0858e8347766" componentID="Audition.Fader" id="trackFader" name="volume" powered="true">
            <parameter index="0" name="volume" parameterValue="1"/>
            <parameter index="1" name="static gain" parameterValue="1"/>
          </component>
          <component componentGuid="e45b1e86-d9b3-4b28-b563-9bffb0ac3c21" componentID="Audition.Mute" id="trackMute" name="Mute" powered="true">
            <parameter index="0" parameterValue="0"/>
            <parameter index="1" name="mute" parameterValue="0"/>
          </component>
          <component componentGuid="90019d90-a9cf-42a4-959c-3c5233c3bbc0" componentID="Audition.StereoPanner" id="trackPan" name="StereoPanner" powered="true">
            <parameter index="0" name="Pan" parameterValue="0"/>
          </component>
          <component componentGuid="d66cde40-d999-4ab3-8c7d-b56cc2054300" componentID="Audition.EQ" id="trackEQ" name="EQ" powered="false">
            <parameter index="0" name="Low Shelf Frequency" parameterValue="0.0009078529546968638896942138671875"/>
            <parameter index="1" name="Low Shelf Gain" parameterValue="0.5"/>
            <parameter index="2" name="High Shelf Frequency" parameterValue="0.816159784793853759765625"/>
            <parameter index="3" name="High Shelf Gain" parameterValue="0.5"/>
            <parameter index="4" name="EQ Band 1 Center Frequency" parameterValue="0.0013617794029414653778076171875"/>
            <parameter index="5" name="EQ Band 1 Q" parameterValue="0.000199989997781813144683837890625"/>
            <parameter index="6" name="EQ Band 1 Gain" parameterValue="0.5"/>
            <parameter index="7" name="EQ Band 1 Enable" parameterValue="1"/>
            <parameter index="8" name="EQ Band 2 Center Frequency" parameterValue="0.008170676417648792266845703125"/>
            <parameter index="9" name="EQ Band 2 Q" parameterValue="0.000199989997781813144683837890625"/>
            <parameter index="10" name="EQ Band 2 Gain" parameterValue="0.5"/>
            <parameter index="11" name="EQ Band 2 Enable" parameterValue="1"/>
            <parameter index="12" name="EQ Band 3 Center Frequency" parameterValue="0.0354062654078006744384765625"/>
            <parameter index="13" name="EQ Band 3 Q" parameterValue="0.000199989997781813144683837890625"/>
            <parameter index="14" name="EQ Band 3 Gain" parameterValue="0.5"/>
            <parameter index="15" name="EQ Band 3 Enable" parameterValue="1"/>
            <parameter index="16" name="EQ Band 4 Center Frequency" parameterValue="0.144348621368408203125"/>
            <parameter index="17" name="EQ Band 4 Q" parameterValue="0.000199989997781813144683837890625"/>
            <parameter index="18" name="EQ Band 4 Gain" parameterValue="0.5"/>
            <parameter index="19" name="EQ Band 4 Enable" parameterValue="1"/>
            <parameter index="20" name="EQ Band 5 Center Frequency" parameterValue="0.580118000507354736328125"/>
            <parameter index="21" name="EQ Band 5 Q" parameterValue="0.000199989997781813144683837890625"/>
            <parameter index="22" name="EQ Band 5 Gain" parameterValue="0.5"/>
            <parameter index="23" name="EQ Band 5 Enable" parameterValue="1"/>
            <parameter index="24" name="Gain" parameterValue="0.666666686534881591796875"/>
            <parameter index="25" name="ConstantQ" parameterValue="1"/>
            <parameter index="26" name="Low Shelf Filter Order" parameterValue="0"/>
            <parameter index="27" name="High Shelf Filter Order" parameterValue="0"/>
            <parameter index="28" name="Ultra-Quiet Mode" parameterValue="0"/>
            <parameter index="29" name="Low Shelf Enable" parameterValue="1"/>
            <parameter index="30" name="High Shelf Enable" parameterValue="1"/>
            <parameter index="31" name="Original Sample Rate" parameterValue="0.22968749701976776123046875"/>
            <parameter index="32" name="EQ Band 1 Bandwidth" parameterValue="0.002499990165233612060546875"/>
            <parameter index="33" name="EQ Band 2 Bandwidth" parameterValue="0.0099999904632568359375"/>
            <parameter index="34" name="EQ Band 3 Bandwidth" parameterValue="0.0399999916553497314453125"/>
            <parameter index="35" name="EQ Band 4 Bandwidth" parameterValue="0.15999998152256011962890625"/>
            <parameter index="36" name="EQ Band 5 Bandwidth" parameterValue="0.63999998569488525390625"/>
            <parameter index="37" name="High-Pass Filter Enable" parameterValue="0"/>
            <parameter index="38" name="High-Pass Cutoff Frequency" parameterValue="0"/>
            <parameter index="39" name="High-Pass Slope" parameterValue="0.4000000059604644775390625"/>
            <parameter index="40" name="Low-Pass Filter Enable" parameterValue="0"/>
            <parameter index="41" name="Low-Pass Cutoff Frequency" parameterValue="0.906945049762725830078125"/>
            <parameter index="42" name="Low-Pass Slope" parameterValue="0.4000000059604644775390625"/>
            <parameter index="43" name="Bypass" parameterValue="0"/>
            <parameter index="44" name="LowGraphRange" parameterValue="1"/>
          </component>
        </trackAudioParameters>
        <editParameter parameterIndex="0" slotIndex="4294967280"/>
      </audioTrack>
      <audioTrack automationLaneOpenState="false" id="10006" index="6" select="false" visible="true">
        <trackParameters trackHeight="1055" trackHue="92" trackMinimized="false">
          <name>Track 6</name>
        </trackParameters>
        <trackAudioParameters audioChannelType="stereo" automationMode="1" monitoring="false" recordArmed="false" solo="false" soloSafe="false">
          <trackOutput outputID="10000" type="trackID"/>
          <trackInput inputID="1"/>
          <component componentGuid="72874f0c-f784-4b6d-87cf-3b99b9f4d722" componentID="Audition.Fader" id="trackFader" name="volume" powered="true">
            <parameter index="0" name="volume" parameterValue="1"/>
            <parameter index="1" name="static gain" parameterValue="1"/>
          </component>
          <component componentGuid="c29b16fc-1698-4f81-94a0-5a48252dbccb" componentID="Audition.Mute" id="trackMute" name="Mute" powered="true">
            <parameter index="0" parameterValue="0"/>
            <parameter index="1" name="mute" parameterValue="0"/>
          </component>
          <component componentGuid="d49c7313-0593-4eaa-bf8d-bc5e0e77f8f5" componentID="Audition.StereoPanner" id="trackPan" name="StereoPanner" powered="true">
            <parameter index="0" name="Pan" parameterValue="0"/>
          </component>
          <component componentGuid="83eb67b7-1bf0-4d9a-8df4-0927d563faea" componentID="Audition.EQ" id="trackEQ" name="EQ" powered="false">
            <parameter index="0" name="Low Shelf Frequency" parameterValue="0.0009078529546968638896942138671875"/>
            <parameter index="1" name="Low Shelf Gain" parameterValue="0.5"/>
            <parameter index="2" name="High Shelf Frequency" parameterValue="0.816159784793853759765625"/>
            <parameter index="3" name="High Shelf Gain" parameterValue="0.5"/>
            <parameter index="4" name="EQ Band 1 Center Frequency" parameterValue="0.0013617794029414653778076171875"/>
            <parameter index="5" name="EQ Band 1 Q" parameterValue="0.000199989997781813144683837890625"/>
            <parameter index="6" name="EQ Band 1 Gain" parameterValue="0.5"/>
            <parameter index="7" name="EQ Band 1 Enable" parameterValue="1"/>
            <parameter index="8" name="EQ Band 2 Center Frequency" parameterValue="0.008170676417648792266845703125"/>
            <parameter index="9" name="EQ Band 2 Q" parameterValue="0.000199989997781813144683837890625"/>
            <parameter index="10" name="EQ Band 2 Gain" parameterValue="0.5"/>
            <parameter index="11" name="EQ Band 2 Enable" parameterValue="1"/>
            <parameter index="12" name="EQ Band 3 Center Frequency" parameterValue="0.0354062654078006744384765625"/>
            <parameter index="13" name="EQ Band 3 Q" parameterValue="0.000199989997781813144683837890625"/>
            <parameter index="14" name="EQ Band 3 Gain" parameterValue="0.5"/>
            <parameter index="15" name="EQ Band 3 Enable" parameterValue="1"/>
            <parameter index="16" name="EQ Band 4 Center Frequency" parameterValue="0.144348621368408203125"/>
            <parameter index="17" name="EQ Band 4 Q" parameterValue="0.000199989997781813144683837890625"/>
            <parameter index="18" name="EQ Band 4 Gain" parameterValue="0.5"/>
            <parameter index="19" name="EQ Band 4 Enable" parameterValue="1"/>
            <parameter index="20" name="EQ Band 5 Center Frequency" parameterValue="0.580118000507354736328125"/>
            <parameter index="21" name="EQ Band 5 Q" parameterValue="0.000199989997781813144683837890625"/>
            <parameter index="22" name="EQ Band 5 Gain" parameterValue="0.5"/>
            <parameter index="23" name="EQ Band 5 Enable" parameterValue="1"/>
            <parameter index="24" name="Gain" parameterValue="0.666666686534881591796875"/>
            <parameter index="25" name="ConstantQ" parameterValue="1"/>
            <parameter index="26" name="Low Shelf Filter Order" parameterValue="0"/>
            <parameter index="27" name="High Shelf Filter Order" parameterValue="0"/>
            <parameter index="28" name="Ultra-Quiet Mode" parameterValue="0"/>
            <parameter index="29" name="Low Shelf Enable" parameterValue="1"/>
            <parameter index="30" name="High Shelf Enable" parameterValue="1"/>
            <parameter index="31" name="Original Sample Rate" parameterValue="0.22968749701976776123046875"/>
            <parameter index="32" name="EQ Band 1 Bandwidth" parameterValue="0.002499990165233612060546875"/>
            <parameter index="33" name="EQ Band 2 Bandwidth" parameterValue="0.0099999904632568359375"/>
            <parameter index="34" name="EQ Band 3 Bandwidth" parameterValue="0.0399999916553497314453125"/>
            <parameter index="35" name="EQ Band 4 Bandwidth" parameterValue="0.15999998152256011962890625"/>
            <parameter index="36" name="EQ Band 5 Bandwidth" parameterValue="0.63999998569488525390625"/>
            <parameter index="37" name="High-Pass Filter Enable" parameterValue="0"/>
            <parameter index="38" name="High-Pass Cutoff Frequency" parameterValue="0"/>
            <parameter index="39" name="High-Pass Slope" parameterValue="0.4000000059604644775390625"/>
            <parameter index="40" name="Low-Pass Filter Enable" parameterValue="0"/>
            <parameter index="41" name="Low-Pass Cutoff Frequency" parameterValue="0.906945049762725830078125"/>
            <parameter index="42" name="Low-Pass Slope" parameterValue="0.4000000059604644775390625"/>
            <parameter index="43" name="Bypass" parameterValue="0"/>
            <parameter index="44" name="LowGraphRange" parameterValue="1"/>
          </component>
        </trackAudioParameters>
        <editParameter parameterIndex="0" slotIndex="4294967280"/>
      </audioTrack>
      <masterTrack automationLaneOpenState="false" id="10000" index="7" select="false" visible="true">
        <trackParameters trackHeight="1055" trackHue="-1" trackMinimized="false">
          <name>Mix</name>
        </trackParameters>
        <trackAudioParameters audioChannelType="stereo" automationMode="1" monitoring="false" recordArmed="false" solo="false" soloSafe="true">
          <trackOutput outputID="1" type="hardwareOutput"/>
          <trackInput inputID="-1"/>
          <component componentGuid="7cb4140e-a5d8-45e4-9b93-0e4aa5a90a3b" componentID="Audition.Fader" id="trackFader" name="volume" powered="true">
            <parameter index="0" name="volume" parameterValue="1"/>
            <parameter index="1" name="static gain" parameterValue="1"/>
          </component>
          <component componentGuid="c2597605-db40-4cf5-bbda-3a96edf0b661" componentID="Audition.Mute" id="trackMute" name="Mute" powered="true">
            <parameter index="0" parameterValue="0"/>
            <parameter index="1" name="mute" parameterValue="0"/>
          </component>
          <component componentGuid="b55f8e88-76c6-494f-8e45-4f9c4ab231ce" componentID="Audition.StereoPanner" id="trackPan" name="StereoPanner" powered="true">
            <parameter index="0" name="Pan" parameterValue="0"/>
          </component>
          <component componentGuid="3b462970-a1c5-47d8-80c9-cd31bec9cf24" componentID="Audition.EQ" id="trackEQ" name="EQ" powered="false">
            <parameter index="0" name="Low Shelf Frequency" parameterValue="0.0009078529546968638896942138671875"/>
            <parameter index="1" name="Low Shelf Gain" parameterValue="0.5"/>
            <parameter index="2" name="High Shelf Frequency" parameterValue="0.816159784793853759765625"/>
            <parameter index="3" name="High Shelf Gain" parameterValue="0.5"/>
            <parameter index="4" name="EQ Band 1 Center Frequency" parameterValue="0.0013617794029414653778076171875"/>
            <parameter index="5" name="EQ Band 1 Q" parameterValue="0.000199989997781813144683837890625"/>
            <parameter index="6" name="EQ Band 1 Gain" parameterValue="0.5"/>
            <parameter index="7" name="EQ Band 1 Enable" parameterValue="1"/>
            <parameter index="8" name="EQ Band 2 Center Frequency" parameterValue="0.008170676417648792266845703125"/>
            <parameter index="9" name="EQ Band 2 Q" parameterValue="0.000199989997781813144683837890625"/>
            <parameter index="10" name="EQ Band 2 Gain" parameterValue="0.5"/>
            <parameter index="11" name="EQ Band 2 Enable" parameterValue="1"/>
            <parameter index="12" name="EQ Band 3 Center Frequency" parameterValue="0.0354062654078006744384765625"/>
            <parameter index="13" name="EQ Band 3 Q" parameterValue="0.000199989997781813144683837890625"/>
            <parameter index="14" name="EQ Band 3 Gain" parameterValue="0.5"/>
            <parameter index="15" name="EQ Band 3 Enable" parameterValue="1"/>
            <parameter index="16" name="EQ Band 4 Center Frequency" parameterValue="0.144348621368408203125"/>
            <parameter index="17" name="EQ Band 4 Q" parameterValue="0.000199989997781813144683837890625"/>
            <parameter index="18" name="EQ Band 4 Gain" parameterValue="0.5"/>
            <parameter index="19" name="EQ Band 4 Enable" parameterValue="1"/>
            <parameter index="20" name="EQ Band 5 Center Frequency" parameterValue="0.580118000507354736328125"/>
            <parameter index="21" name="EQ Band 5 Q" parameterValue="0.000199989997781813144683837890625"/>
            <parameter index="22" name="EQ Band 5 Gain" parameterValue="0.5"/>
            <parameter index="23" name="EQ Band 5 Enable" parameterValue="1"/>
            <parameter index="24" name="Gain" parameterValue="0.666666686534881591796875"/>
            <parameter index="25" name="ConstantQ" parameterValue="1"/>
            <parameter index="26" name="Low Shelf Filter Order" parameterValue="0"/>
            <parameter index="27" name="High Shelf Filter Order" parameterValue="0"/>
            <parameter index="28" name="Ultra-Quiet Mode" parameterValue="0"/>
            <parameter index="29" name="Low Shelf Enable" parameterValue="1"/>
            <parameter index="30" name="High Shelf Enable" parameterValue="1"/>
            <parameter index="31" name="Original Sample Rate" parameterValue="0.22968749701976776123046875"/>
            <parameter index="32" name="EQ Band 1 Bandwidth" parameterValue="0.002499990165233612060546875"/>
            <parameter index="33" name="EQ Band 2 Bandwidth" parameterValue="0.0099999904632568359375"/>
            <parameter index="34" name="EQ Band 3 Bandwidth" parameterValue="0.0399999916553497314453125"/>
            <parameter index="35" name="EQ Band 4 Bandwidth" parameterValue="0.15999998152256011962890625"/>
            <parameter index="36" name="EQ Band 5 Bandwidth" parameterValue="0.63999998569488525390625"/>
            <parameter index="37" name="High-Pass Filter Enable" parameterValue="0"/>
            <parameter index="38" name="High-Pass Cutoff Frequency" parameterValue="0"/>
            <parameter index="39" name="High-Pass Slope" parameterValue="0.4000000059604644775390625"/>
            <parameter index="40" name="Low-Pass Filter Enable" parameterValue="0"/>
            <parameter index="41" name="Low-Pass Cutoff Frequency" parameterValue="0.906945049762725830078125"/>
            <parameter index="42" name="Low-Pass Slope" parameterValue="0.4000000059604644775390625"/>
            <parameter index="43" name="Bypass" parameterValue="0"/>
            <parameter index="44" name="LowGraphRange" parameterValue="1"/>
          </component>
        </trackAudioParameters>
        <editParameter parameterIndex="0" slotIndex="4294967280"/>
      </masterTrack>
    </tracks>
    <sessionState ctiPosition="113597" smpteStart="0">
      <selectionState selectionDuration="0" selectionStart="113597"/>
      <viewState horizontalViewDuration="11619249" horizontalViewStart="0" trackControlsWidth="224" verticalScrollOffset="0"/>
      <timeFormatState beatsPerBar="4" beatsPerMinute="120" customFrameRate="12" linkToDefaultTimeSettings="true" noteLength="4" subdivisions="16" timeCodeDropFrame="false" timeCodeFrameRate="30" timeCodeNTSC="false" timeFormat="timeFormatDecimal"/>
      <mixingOptionState defaultPanModeLogarithmic="false" panPower="-3" playOverlappingClips="false"/>
    </sessionState>
    <xmpMetadata><![CDATA[<?xpacket begin="﻿" id="W5M0MpCehiHzreSzNTczkc9d"?>
<x:xmpmeta xmlns:x="adobe:ns:meta/" x:xmptk="Adobe XMP Core 7.0-c000 79.217bca6, 2021/06/14-18:28:11        ">
   <rdf:RDF xmlns:rdf="http://www.w3.org/1999/02/22-rdf-syntax-ns#">
      <rdf:Description rdf:about=""
            xmlns:xmp="http://ns.adobe.com/xap/1.0/"
            xmlns:xmpMM="http://ns.adobe.com/xap/1.0/mm/"
            xmlns:stEvt="http://ns.adobe.com/xap/1.0/sType/ResourceEvent#"
            xmlns:dc="http://purl.org/dc/elements/1.1/"
            xmlns:xmpDM="http://ns.adobe.com/xmp/1.0/DynamicMedia/">
         <xmp:CreatorTool>Adobe Audition 14.4 (Windows)</xmp:CreatorTool>
         <xmp:CreateDate>2023-01-28T21:25:49Z</xmp:CreateDate>
         <xmp:MetadataDate>2023-01-28T21:49:03Z</xmp:MetadataDate>
         <xmp:ModifyDate>2023-01-28T21:49:03Z</xmp:ModifyDate>
         <xmpMM:InstanceID>xmp.iid:2bf24702-e521-9047-acad-ff7be52a569f</xmpMM:InstanceID>
         <xmpMM:DocumentID>xmp.did:d239d610-2c36-564c-b191-a5c21a06affc</xmpMM:DocumentID>
         <xmpMM:OriginalDocumentID>xmp.did:d239d610-2c36-564c-b191-a5c21a06affc</xmpMM:OriginalDocumentID>
         <xmpMM:History>
            <rdf:Seq>
               <rdf:li rdf:parseType="Resource">
                  <stEvt:action>saved</stEvt:action>
                  <stEvt:instanceID>xmp.iid:d239d610-2c36-564c-b191-a5c21a06affc</stEvt:instanceID>
                  <stEvt:when>2023-01-28T21:25:50Z</stEvt:when>
                  <stEvt:softwareAgent>Adobe Audition 14.4 (Windows)</stEvt:softwareAgent>
                  <stEvt:changed>/metadata</stEvt:changed>
               </rdf:li>
               <rdf:li rdf:parseType="Resource">
                  <stEvt:action>saved</stEvt:action>
                  <stEvt:instanceID>xmp.iid:f81623f0-59ba-d947-ad4a-8eb04f6697a1</stEvt:instanceID>
                  <stEvt:when>2023-01-28T21:31:21Z</stEvt:when>
                  <stEvt:softwareAgent>Adobe Audition 14.4 (Windows)</stEvt:softwareAgent>
                  <stEvt:changed>/metadata</stEvt:changed>
               </rdf:li>
               <rdf:li rdf:parseType="Resource">
                  <stEvt:action>saved</stEvt:action>
                  <stEvt:instanceID>xmp.iid:667e42a8-460e-8244-8ad0-c82c752db2eb</stEvt:instanceID>
                  <stEvt:when>2023-01-28T21:31:21Z</stEvt:when>
                  <stEvt:softwareAgent>Adobe Audition 14.4 (Windows)</stEvt:softwareAgent>
                  <stEvt:changed>/</stEvt:changed>
               </rdf:li>
               <rdf:li rdf:parseType="Resource">
                  <stEvt:action>saved</stEvt:action>
                  <stEvt:instanceID>xmp.iid:8fe53dae-490a-3240-80d3-6246669eb26e</stEvt:instanceID>
                  <stEvt:when>2023-01-28T21:49:03Z</stEvt:when>
                  <stEvt:softwareAgent>Adobe Audition 14.4 (Windows)</stEvt:softwareAgent>
                  <stEvt:changed>/metadata</stEvt:changed>
               </rdf:li>
               <rdf:li rdf:parseType="Resource">
                  <stEvt:action>saved</stEvt:action>
                  <stEvt:instanceID>xmp.iid:2bf24702-e521-9047-acad-ff7be52a569f</stEvt:instanceID>
                  <stEvt:when>2023-01-28T21:49:03Z</stEvt:when>
                  <stEvt:softwareAgent>Adobe Audition 14.4 (Windows)</stEvt:softwareAgent>
                  <stEvt:changed>/</stEvt:changed>
               </rdf:li>
            </rdf:Seq>
         </xmpMM:History>
         <dc:format>application/xml</dc:format>
         <xmpDM:Tracks>
            <rdf:Bag>
               <rdf:li rdf:parseType="Resource">
                  <xmpDM:trackName>CuePoint Markers</xmpDM:trackName>
                  <xmpDM:trackType>Cue</xmpDM:trackType>
                  <xmpDM:frameRate>f44100</xmpDM:frameRate>
               </rdf:li>
               <rdf:li rdf:parseType="Resource">
                  <xmpDM:trackName>CD Track Markers</xmpDM:trackName>
                  <xmpDM:trackType>Track</xmpDM:trackType>
                  <xmpDM:frameRate>f44100</xmpDM:frameRate>
               </rdf:li>
               <rdf:li rdf:parseType="Resource">
                  <xmpDM:trackName>Subclip Markers</xmpDM:trackName>
                  <xmpDM:trackType>InOut</xmpDM:trackType>
                  <xmpDM:frameRate>f44100</xmpDM:frameRate>
               </rdf:li>
            </rdf:Bag>
         </xmpDM:Tracks>
      </rdf:Description>
   </rdf:RDF>
</x:xmpmeta>
                                                                                                    
                                                                                                    
                                                                                                    
                                                                                                    
                                                                                                    
                                                                                                    
                                                                                                    
                                                                                                    
                                                                                                    
                                                                                                    
                                                                                                    
                                                                                                    
                                                                                                    
                                                                                                    
                                                                                                    
                                                                                                    
                                                                                                    
                                                                                                    
                                                                                                    
                                                                                                    
                           
<?xpacket end="w"?>]]></xmpMetadata>
    <clipGroups/>
    <metronome enabled="false" pattern="downBeat subdivision subdivision subdivision " soundSet="sticks">
      <metronomeTrack automationLaneOpenState="false" id="40000" index="0" select="false" visible="false">
        <trackParameters trackHeight="77" trackHue="-1" trackMinimized="false">
          <name>Metronome</name>
        </trackParameters>
        <trackAudioParameters audioChannelType="mono" automationMode="1" monitoring="false" recordArmed="false" solo="false" soloSafe="true">
          <trackOutput outputID="10000" type="trackID"/>
          <trackInput inputID="-1"/>
          <component componentGuid="576628cd-7d7f-4178-92ca-1bdfe3c20d63" componentID="Audition.Fader" id="trackFader" name="volume" powered="true">
            <parameter index="0" name="volume" parameterValue="0.50118720531463623046875"/>
            <parameter index="1" name="static gain" parameterValue="1"/>
          </component>
          <component componentGuid="6eddeb55-9666-4676-8e4c-8d96828d8c71" componentID="Audition.Mute" id="trackMute" name="Mute" powered="true">
            <parameter index="0" parameterValue="0"/>
            <parameter index="1" name="mute" parameterValue="0"/>
          </component>
          <component componentGuid="c2b855b0-a35d-4bbc-9594-560566a8c56e" componentID="Audition.StereoPanner" id="trackPan" name="StereoPanner" powered="true">
            <parameter index="0" name="Pan" parameterValue="0"/>
          </component>
          <component componentGuid="335dfae7-2cdc-4e62-9fbf-718da6eddbb7" componentID="Audition.EQ" id="trackEQ" name="EQ" powered="false">
            <parameter index="0" name="Low Shelf Frequency" parameterValue="0.0009078529546968638896942138671875"/>
            <parameter index="1" name="Low Shelf Gain" parameterValue="0.5"/>
            <parameter index="2" name="High Shelf Frequency" parameterValue="0.816159784793853759765625"/>
            <parameter index="3" name="High Shelf Gain" parameterValue="0.5"/>
            <parameter index="4" name="EQ Band 1 Center Frequency" parameterValue="0.0013617794029414653778076171875"/>
            <parameter index="5" name="EQ Band 1 Q" parameterValue="0.000199989997781813144683837890625"/>
            <parameter index="6" name="EQ Band 1 Gain" parameterValue="0.5"/>
            <parameter index="7" name="EQ Band 1 Enable" parameterValue="1"/>
            <parameter index="8" name="EQ Band 2 Center Frequency" parameterValue="0.008170676417648792266845703125"/>
            <parameter index="9" name="EQ Band 2 Q" parameterValue="0.000199989997781813144683837890625"/>
            <parameter index="10" name="EQ Band 2 Gain" parameterValue="0.5"/>
            <parameter index="11" name="EQ Band 2 Enable" parameterValue="1"/>
            <parameter index="12" name="EQ Band 3 Center Frequency" parameterValue="0.0354062654078006744384765625"/>
            <parameter index="13" name="EQ Band 3 Q" parameterValue="0.000199989997781813144683837890625"/>
            <parameter index="14" name="EQ Band 3 Gain" parameterValue="0.5"/>
            <parameter index="15" name="EQ Band 3 Enable" parameterValue="1"/>
            <parameter index="16" name="EQ Band 4 Center Frequency" parameterValue="0.144348621368408203125"/>
            <parameter index="17" name="EQ Band 4 Q" parameterValue="0.000199989997781813144683837890625"/>
            <parameter index="18" name="EQ Band 4 Gain" parameterValue="0.5"/>
            <parameter index="19" name="EQ Band 4 Enable" parameterValue="1"/>
            <parameter index="20" name="EQ Band 5 Center Frequency" parameterValue="0.580118000507354736328125"/>
            <parameter index="21" name="EQ Band 5 Q" parameterValue="0.000199989997781813144683837890625"/>
            <parameter index="22" name="EQ Band 5 Gain" parameterValue="0.5"/>
            <parameter index="23" name="EQ Band 5 Enable" parameterValue="1"/>
            <parameter index="24" name="Gain" parameterValue="0.666666686534881591796875"/>
            <parameter index="25" name="ConstantQ" parameterValue="1"/>
            <parameter index="26" name="Low Shelf Filter Order" parameterValue="0"/>
            <parameter index="27" name="High Shelf Filter Order" parameterValue="0"/>
            <parameter index="28" name="Ultra-Quiet Mode" parameterValue="0"/>
            <parameter index="29" name="Low Shelf Enable" parameterValue="1"/>
            <parameter index="30" name="High Shelf Enable" parameterValue="1"/>
            <parameter index="31" name="Original Sample Rate" parameterValue="0.22968749701976776123046875"/>
            <parameter index="32" name="EQ Band 1 Bandwidth" parameterValue="0.002499990165233612060546875"/>
            <parameter index="33" name="EQ Band 2 Bandwidth" parameterValue="0.0099999904632568359375"/>
            <parameter index="34" name="EQ Band 3 Bandwidth" parameterValue="0.0399999916553497314453125"/>
            <parameter index="35" name="EQ Band 4 Bandwidth" parameterValue="0.15999998152256011962890625"/>
            <parameter index="36" name="EQ Band 5 Bandwidth" parameterValue="0.63999998569488525390625"/>
            <parameter index="37" name="High-Pass Filter Enable" parameterValue="0"/>
            <parameter index="38" name="High-Pass Cutoff Frequency" parameterValue="0"/>
            <parameter index="39" name="High-Pass Slope" parameterValue="0.4000000059604644775390625"/>
            <parameter index="40" name="Low-Pass Filter Enable" parameterValue="0"/>
            <parameter index="41" name="Low-Pass Cutoff Frequency" parameterValue="0.906945049762725830078125"/>
            <parameter index="42" name="Low-Pass Slope" parameterValue="0.4000000059604644775390625"/>
            <parameter index="43" name="Bypass" parameterValue="0"/>
            <parameter index="44" name="LowGraphRange" parameterValue="1"/>
          </component>
        </trackAudioParameters>
        <editParameter parameterIndex="0" slotIndex="4294967280"/>
      </metronomeTrack>
    </metronome>
    <properties>
      <property key="EssentialSoundConfigurations">[{"Guid":"a8b40e3e-13e7-4c1f-b382-96058f1f691d","Name":"$$$/app/Presets/DefaultPresetName=(Default)","PresetData":{"ModeID":"ambience","Models":{"model_ducking":{},"model_loudness":{"DefaultLoudness":{"type":"float","value":-30},"LoudnessStandard":{"type":"std::uint32_t","value":0},"MaxLoudness":{"type":"float","value":-12},"MinLoudness":{"type":"float","value":-42}},"model_soundeffects":{"ReverbPresets":{"type":"tree::any","value":{"$$$/app/Presets/EssentialSound/ReverbPreset/LargeRoomAmbience=Large Room Ambience":{"type":"array::float","value":[0.051507499068975449,0.32432401180267334,0.29292899370193481,0.30000001192092896,0.20000000298023224,0,0.14285700023174286,0.40000000596046448,0.5,0.69999998807907104,0.30000001192092896,0.25125628709793091,0.03125]},"$$$/app/Presets/EssentialSound/ReverbPreset/OutsideAmbience=Outside Ambience":{"type":"array::float","value":[0.091708503663539886,0.043893899768590927,1,0.5,0.20000000298023224,0.80000001192092896,0.18367299437522888,1,0.5,0,0.80000001192092896,0.25125628709793091,0.03125]},"$$$/app/Presets/EssentialSound/ReverbPreset/RoomAmbience=Room Ambience":{"type":"array::float","value":[0.057788901031017303,0.44944900274276733,0.49494898319244385,0.89999997615814209,0.10000000149011612,0.15000000596046448,0.081632703542709351,0.40000000596046448,0.5,0.80000001192092896,0.20000000298023224,0.25125628709793091,0.03125]},"$$$/app/Presets/EssentialSound/ReverbPreset/WindEffect=Wind Effect":{"type":"array::float","value":[0.19597999751567841,0.6896899938583374,0.69696998596191406,0.25,0.5,0.5,0.23469400405883789,0.51999998092651367,0.5,0.75,0.25,0.25125628709793091,0.03125]}}}},"model_stereowidth":{},"model_volume":{"MaxGain":{"type":"float","value":15},"MinGain":{"type":"float","value":-60}}},"Version":1},"Type":"1c19ca71-c24c-49cd-8dd5-2cc46018507a","Version":1},{"Guid":"58dc27a8-6a2a-480c-bd0c-4b45fff346a6","Name":"$$$/app/Presets/DefaultPresetName=(Default)","PresetData":{"ModeID":"dialog","Models":{"model_clarity":{"EQPresets":{"type":"tree::any","value":{"$$$/app/Presets/EssentialSound/EQPreset/BackgroundVoice=Background Voice":{"type":"array::float","value":[0.12099699676036835,0.5,0.39240506291389465,0,0.5,0.5,0.5,0.5,0.5,0.47827938199043274,0.45772689580917358,0.45778733491897583,0.47946760058403015,0.5,0]},"$$$/app/Presets/EssentialSound/EQPreset/Intercom=Intercom":{"type":"array::float","value":[0.19432899355888367,0.5,1,0,0.071499988436698914,0.071499988436698914,0.071499988436698914,0.40238627791404724,0.48571401834487915,0.5,0.55155748128890991,0.59602576494216919,0.22246670722961426,0.071499988436698914,0]},"$$$/app/Presets/EssentialSound/EQPreset/LockedInTheTrunk=Locked in the Trunk":{"type":"array::float","value":[0.12099699676036835,0.5,0.79746836423873901,0,0.5,0.5,0.5,0.5,0.5,0.32846158742904663,0.15721426904201508,0.15721426904201508,0.15721426904201508,0.15721426904201508,0]},"$$$/app/Presets/EssentialSound/EQPreset/OldRadio=Old Radio":{"type":"array::float","value":[0.12099699676036835,0.5,0.79746836423873901,0,0.15721426904201508,0.15721426904201508,0.15721426904201508,0.28442040085792542,0.48315632343292236,0.36498492956161499,0.52853888273239136,0.43511500954627991,0.27154684066772461,0.15721426904201508,0]},"$$$/app/Presets/EssentialSound/EQPreset/OnTheTelephone=On the Telephone":{"type":"array::float","value":[0.12099699676036835,0.5,0.39240506291389465,0,0.32864287495613098,0.32864287495613098,0.32864287495613098,0.32864287495613098,0.48571401834487915,0.53071397542953491,0.53071397542953491,0.48357096314430237,0.32864287495613098,0.32864287495613098,0]},"$$$/app/Presets/EssentialSound/EQPreset/OutsideOfTheRoom=Outside of the Room":{"type":"array::float","value":[0.12099699676036835,0.5,0.79746836423873901,0,0.42539370059967041,0.47865453362464905,0.5,0.5,0.48571401834487915,0.40073278546333313,0.25656309723854065,0.15721426904201508,0.15721426904201508,0.15721426904201508,0]},"$$$/app/Presets/EssentialSound/EQPreset/PodcastVoice=Podcast Voice":{"type":"array::float","value":[0.12099699676036835,0.5,0.39240506291389465,0,0.5,0.5,0.5,0.51789408922195435,0.50770342350006104,0.5,0.51789408922195435,0.528114914894104,0.5102812647819519,0.5,0]},"$$$/app/Presets/EssentialSound/EQPreset/SubtleBoostFemale=Subtle Boost (Female)":{"type":"array::float","value":[0.096553400158882141,0.5,0.29113924503326416,0,0.5,0.5,0.5,0.5,0.5,0.51933407783508301,0.54642897844314575,0.52706766128540039,0.5,0.5,0]},"$$$/app/Presets/EssentialSound/EQPreset/SubtleBoostMale=Subtle Boost (Male)":{"type":"array::float","value":[0.096553400158882141,0.5,0.29113924503326416,0,0.5,0.5,0.5,0.5,0.5,0.5135338306427002,0.54642897844314575,0.51933407783508301,0.5,0.5,0]},"$$$/app/Presets/EssentialSound/EQPreset/ThatPublicRadioSound=That Public Radio Sound":{"type":"array::float","value":[0.12099699676036835,0.5,0.79746836423873901,0,0.15721426904201508,0.15721426904201508,0.15721426904201508,0.36334344744682312,0.49468311667442322,0.5,0.5,0.5,0.5,0.5,0]},"$$$/app/Presets/EssentialSound/EQPreset/VocalPresence=Vocal Presence":{"type":"array::float","value":[0.096553400158882141,0.5,0.32489451766014099,0,0.3572143018245697,0.3572143018245697,0.46428570151329041,0.47857141494750977,0.4763694703578949,0.49570354819297791,0.55924957990646362,0.56523394584655762,0.50859290361404419,0.46992480754852295,0]}}}},"model_loudness":{"DefaultLoudness":{"type":"float","value":-23},"LoudnessStandard":{"type":"std::uint32_t","value":0},"MaxLoudness":{"type":"float","value":-12},"MinLoudness":{"type":"float","value":-42}},"model_restoration":{"ReduceNoiseMaxSetting":{"type":"array::float","value":[1,0,0,0,0]},"ReduceNoiseMinSetting":{"type":"array::float","value":[0,0,0,0,0]},"ReduceReverbMaxSetting":{"type":"array::float","value":[1,0,1,0,0]},"ReduceReverbMinSetting":{"type":"array::float","value":[0,0,1,0,0]},"ReduceRumbleMaxSetting":{"type":"array::float","value":[1,0.061583578586578369,0.375,0,0,0.00083333335351198912,1,0,1,0.0390625,0.00083408987848088145,0,0.0041666668839752674,0.00022554649331141263,0.0046875001862645149,0.75,0.0052083334885537624,0.75,1,0.75,0.0040520834736526012,0.75,0.0042629167437553406,0.00022554649331141263,0.0064883334562182426,0.00022554649331141263,0.006866666954010725,0.75,0.0071704164147377014,0.00022554649331141263,0.01041458360850811,0.00022554649331141263,0.010900000110268593,0.75,0.011407917365431786,0.00022554649331141263,0.015606249682605267,0.00022554649331141263,0.016333334147930145,0.75,0.017094582319259644,0.00022554649331141263,0.026243748143315315,0.00022554649331141263,0.0274666678160429,0.75,0.028746666386723518,0.00022554649331141263,0.041658751666545868,0.00022554649331141263,0.043600000441074371,0.75,0.045631669461727142,0.00022554649331141263,0.062424581497907639,0.00022554649331141263,0.065333336591720581,0.75,0.068377502262592316,0.00022554649331141263,0.10497540980577469,0.00022554649331141263,0.1098666712641716,0.75,0.11498583108186722,0.00022554649331141263,0.16663584113121033,0.00022554649331141263,0.17440000176429749,0.75,0.18252624571323395,0.00022554649331141263,0.91874998807907104,0.00022554649331141263,1,0.00022554649331141263,0,0,0,0,0,0,0,0,0,0,0,0,0,0,0,0,0,0,0,0,0,0,0,0,0,0,0,0,0,0,0,0,0,0,0,0,0,0,0,0,0,0,0,0,0,0,0,0,0,0,0,0,0,0,0,0,0,0,0,0,0,0,0,0,0,0,0,0,0,0,0,0,0,0,0,0,0,0,0,0,0,0,0,0,0,0,0,0,0,0,0,0,0,0,0,0,0,0,0,0,0,0,0,0,0,0,0,0,0,0,0,0,0,0,0,0,0,0,0,0,0,0,0,0,0,0,0,0,0,0,0,0,0,0,0,0,0,0,0,0,0,0,0,0,0,0,0,0,0,0,0,0,0,0,0,0,0,0,0,0,0,0,0,0,0,0,0,0,0,0,0,0,0,0,0,0,0,0,0,0,0,0,0,0,0,0,0,0,0,0]},"ReduceRumbleMinSetting":{"type":"array::float","value":[1,0.061583578586578369,0.375,0,0,0.00083333335351198912,1,0,1,0.0390625,0.00083408987848088145,0.75,0.0041666668839752674,0.75,0.0046875001862645149,0.75,0.0052083334885537624,0.75,1,0.75,0.91874998807907104,0.61237245798110962,1,0.61237245798110962,0,0,0,0,0,0,0,0,0,0,0,0,0,0,0,0,0,0,0,0,0,0,0,0,0,0,0,0,0,0,0,0,0,0,0,0,0,0,0,0,0,0,0,0,0,0,0,0,0,0,0,0,0,0,0,0,0,0,0,0,0,0,0,0,0,0,0,0,0,0,0,0,0,0,0,0,0,0,0,0,0,0,0,0,0,0,0,0,0,0,0,0,0,0,0,0,0,0,0,0,0,0,0,0,0,0,0,0,0,0,0,0,0,0,0,0,0,0,0,0,0,0,0,0,0,0,0,0,0,0,0,0,0,0,0,0,0,0,0,0,0,0,0,0,0,0,0,0,0,0,0,0,0,0,0,0,0,0,0,0,0,0,0,0,0,0,0,0,0,0,0,0,0,0,0,0,0,0,0,0,0,0,0,0,0,0,0,0,0,0,0,0,0,0,0,0,0,0,0,0,0,0,0,0,0,0,0,0,0,0,0,0,0,0,0,0,0,0,0,0,0,0,0,0,0,0,0,0,0,0,0,0,0,0,0,0,0,0,0,0,0,0]},"ReduceSibilanceMaxSetting":{"type":"array::float","value":[0.5,0.19983997941017151,0.18367347121238708,0.26086956262588501,0.52702701091766357,0,1,0,0,0,0,0.75,1,1,0.40000000596046448]},"ReduceSibilanceMinSetting":{"type":"array::float","value":[0.875,0.19983997941017151,0.18367347121238708,0.19130434095859528,0.25675675272941589,0,1,0,0,0,0,0.75,1,1,0.40000000596046448]}},"model_soundeffects":{"ReverbPresets":{"type":"tree::any","value":{"$$$/app/Presets/EssentialSound/ReverbPreset/Auditorium=Auditorium":{"type":"array::float","value":[0.013047545216977596,0.15895412862300873,1,0.89999997615814209,0,0.52007436752319336,0.41663265228271484,0.46000000834465027,0.5,0.73000001907348633,0.15999999642372131,0.75376886129379272,0.03125]},"$$$/app/Presets/EssentialSound/ReverbPreset/Church=Church":{"type":"array::float","value":[0.032663315534591675,0.39939939975738525,0.79797977209091187,0.25,0.5,0.5,0.2297959178686142,0.72000002861022949,0.5,0.62999999523162842,0.87999999523162842,0.25125628709793091,0.03125]},"$$$/app/Presets/EssentialSound/ReverbPreset/LargeReflectiveRoom=Large Reflective Room":{"type":"array::float","value":[0.0074449013918638229,0.098988421261310577,0.79890537261962891,0.89999997615814209,0.10000000149011612,0.40110713243484497,0.060284845530986786,0.27522978186607361,0.5,0.73000001907348633,0.31999999284744263,0.25125628709793091,0.03125]},"$$$/app/Presets/EssentialSound/ReverbPreset/OutsideTheClub=Outside the Club":{"type":"array::float","value":[0.020615793764591217,0.050136558711528778,0.69696998596191406,0.25,0.094355784356594086,0.22242647409439087,0.1071428582072258,0.2800000011920929,0.5,0.73000001907348633,0.46000000834465027,0.25125628709793091,0.03125]},"$$$/app/Presets/EssentialSound/ReverbPreset/SmallDryRoom=Small Dry Room":{"type":"array::float","value":[0.24623115360736847,0.69975000619888306,0.29292899370193481,0.40000000596046448,0.20000000298023224,0.40000000596046448,0.039285715669393539,0.10000000149011612,0.5,1,0.5,0.75376886129379272,0.03125]},"$$$/app/Presets/EssentialSound/ReverbPreset/ThickenVoice=Thicken Voice":{"type":"array::float","value":[0.19597999751567841,0.23931467533111572,0.69696998596191406,0.25,0.5,0.53999996185302734,0.020408162847161293,0.20945435762405396,0.5,1,0.34999999403953552,0.25125628709793091,0.03125]},"$$$/app/Presets/EssentialSound/ReverbPreset/WarmRoom=Warm Room":{"type":"array::float","value":[0.020100502297282219,0.074074074625968933,0.49494948983192444,0.40000000596046448,0.74960309267044067,0.40000000596046448,0.1239795908331871,0.67000001668930054,0.5,0.85000002384185791,0.56000000238418579,0.25125628709793091,0.03125]},"$$$/app/Presets/EssentialSound/ReverbPreset/WarmVoice=Warm Voice":{"type":"array::float","value":[0.19597989320755005,0.89989989995956421,0,0.40000000596046448,0.20000000298023224,0.40000000596046448,0.10204081982374191,0.090000003576278687,0.5,1,0.30000001192092896,0.25125628709793091,0.03125]}}}},"model_volume":{"MaxGain":{"type":"float","value":15},"MinGain":{"type":"float","value":-60}}},"Version":2},"Type":"1c19ca71-c24c-49cd-8dd5-2cc46018507a","Version":1},{"Guid":"353811fa-4179-435e-8e5e-23028ba15a7a","Name":"$$$/app/Presets/DefaultPresetName=(Default)","PresetData":{"ModeID":"generic","Models":{"model_loudness":{"DefaultLoudness":{"type":"float","value":-24},"LoudnessStandard":{"type":"std::uint32_t","value":0},"MaxLoudness":{"type":"float","value":-12},"MinLoudness":{"type":"float","value":-42}},"model_volume":{"MaxGain":{"type":"float","value":15},"MinGain":{"type":"float","value":-60}}},"Version":1},"Type":"1c19ca71-c24c-49cd-8dd5-2cc46018507a","Version":1},{"Guid":"31ba96a6-5d3e-4d89-b1e1-1dbe3c055d0c","Name":"$$$/app/Presets/DefaultPresetName=(Default)","PresetData":{"ModeID":"music","Models":{"model_ducking":{},"model_duration":{},"model_loudness":{"DefaultLoudness":{"type":"float","value":-25},"LoudnessStandard":{"type":"std::uint32_t","value":0},"MaxLoudness":{"type":"float","value":-12},"MinLoudness":{"type":"float","value":-42}},"model_volume":{"MaxGain":{"type":"float","value":15},"MinGain":{"type":"float","value":-60}}},"Version":1},"Type":"1c19ca71-c24c-49cd-8dd5-2cc46018507a","Version":1},{"Guid":"cea63332-1adc-44a9-a6eb-5490f965859b","Name":"$$$/app/Presets/DefaultPresetName=(Default)","PresetData":{"ModeID":"sfx","Models":{"model_loudness":{"DefaultLoudness":{"type":"float","value":-21},"LoudnessStandard":{"type":"std::uint32_t","value":0},"MaxLoudness":{"type":"float","value":-12},"MinLoudness":{"type":"float","value":-42}},"model_pan":{},"model_soundeffects":{"ReverbPresets":{"type":"tree::any","value":{"$$$/app/Presets/EssentialSound/ReverbPreset/HeavyReverb=Heavy Reverb":{"type":"array::float","value":[0.13316600024700165,0.29929900169372559,1,0.95999997854232788,0.85000002384185791,0.5,0.51530599594116211,0.30000001192092896,0.5,0.5,0.5,0.25125628709793091,0.0625]},"$$$/app/Presets/EssentialSound/ReverbPreset/LightReverb=Light Reverb":{"type":"array::float","value":[0.095477402210235596,0.29929900169372559,0.090909101068973541,1,1,0.80000001192092896,0.22449000179767609,0.60000002384185791,0.5,0.69999998807907104,0.30000001192092896,0.25125628709793091,0.0625]},"$$$/app/Presets/EssentialSound/ReverbPreset/OutsideReverb=Outside Reverb":{"type":"array::float","value":[0.091708503663539886,0.043893899768590927,1,0.5,0.20000000298023224,0.80000001192092896,0.18367299437522888,1,0.5,0,0.80000001192092896,0.25125628709793091,0.0625]},"$$$/app/Presets/EssentialSound/ReverbPreset/RoomReverb=Room Reverb":{"type":"array::float","value":[0.057788901031017303,0.44944900274276733,0.49494898319244385,0.89999997615814209,0.10000000149011612,0.15000000596046448,0.081632703542709351,0.40000000596046448,0.5,0.80000001192092896,0.20000000298023224,0.25125628709793091,0.0625]}}}},"model_volume":{"MaxGain":{"type":"float","value":15},"MinGain":{"type":"float","value":-60}}},"Version":1},"Type":"1c19ca71-c24c-49cd-8dd5-2cc46018507a","Version":1}]</property>
    </properties>
  </session>

  <files>
    <file absolutePath="C:\Users\asdaman69\Desktop\FMP2\Assets\SoundAssets\voice acting\Voice Files\Imported Files\bean.wav" id="0" importerPrivateSettings="Compression:0:0;LargeFileSupport:0:0;SampleType:0:40;" mediaHandler="AmioWav" relativePath="Imported Files/bean.wav"/>
  </files>

  <audioDevice inputID="22222222-2222-2222-2222-22222222" outputID="11111111-1111-1111-1111-11111111">
    <inputPort id="1" name="Default Stereo Input"/>
    <inputPort id="2" name="[01M] System Default - Headset Microphone (4- CORSAIR HS70 PRO Wireless Gaming Headset) 1"/>
    <inputPort id="3" name="[02M] System Default - Headset Microphone (4- CORSAIR HS70 PRO Wireless Gaming Headset) 2"/>
    <inputPort id="4" name="[01S] System Default - Headset Microphone (4- CORSAIR HS70 PRO Wireless Gaming Headset) 1"/>
    <outputPort id="1" name="Default Output"/>
    <outputPort id="2" name="[01M] System Default - VoiceMeeter Aux Input (VB-Audio VoiceMeeter AUX VAIO) 1"/>
    <outputPort id="3" name="[02M] System Default - VoiceMeeter Aux Input (VB-Audio VoiceMeeter AUX VAIO) 2"/>
    <outputPort id="4" name="Default Stereo Output"/>
    <outputPort id="5" name="[01S] System Default - VoiceMeeter Aux Input (VB-Audio VoiceMeeter AUX VAIO) 1"/>
    <outputPort id="6" name="Default Surround Output"/>
  </audioDevice>

</sesx>
